<?xml version="1.0" encoding="UTF-8"?>
<!DOCTYPE svg PUBLIC "-//W3C//DTD SVG 1.1//EN" "http://www.w3.org/Graphics/SVG/1.1/DTD/svg11.dtd">
<svg xmlns="http://www.w3.org/2000/svg" xmlns:xlink="http://www.w3.org/1999/xlink" width="293px" height="243px" version="1.1"><defs/><g transform="translate(0.5,0.5)"><path d="M 240.54 19.73 C 240.6 18.64 241.48 17.78 242.56 17.78 L 288.42 17.78 C 289.5 17.78 290.38 18.64 290.44 19.73 L 290.49 31.54 C 290.49 32.1 290.27 32.63 289.88 33.01 C 289.49 33.4 288.97 33.61 288.42 33.6 L 242.56 33.6 C 242.02 33.6 241.51 33.38 241.13 32.99 C 240.75 32.61 240.54 32.09 240.54 31.54 Z M 246.58 29.85 C 246.58 28.86 245.79 28.05 244.82 28.05 C 243.85 28.05 243.06 28.86 243.06 29.85 C 243.06 30.84 243.85 31.64 244.82 31.64 C 245.79 31.64 246.58 30.84 246.58 29.85 Z M 276.79 29.69 C 276.49 29.69 276.24 29.95 276.24 30.26 C 276.24 30.57 276.49 30.82 276.79 30.82 L 286.86 30.82 C 287.17 30.82 287.42 30.57 287.42 30.26 C 287.42 29.95 287.17 29.69 286.86 29.69 Z M 276.79 27.74 C 276.49 27.74 276.24 28 276.24 28.31 C 276.24 28.62 276.49 28.87 276.79 28.87 L 286.86 28.87 C 287.17 28.87 287.42 28.62 287.42 28.31 C 287.42 28 287.17 27.74 286.86 27.74 Z M 276.79 25.74 C 276.49 25.74 276.24 25.99 276.24 26.31 C 276.24 26.62 276.49 26.87 276.79 26.87 L 286.86 26.87 C 287.17 26.87 287.42 26.62 287.42 26.31 C 287.42 25.99 287.17 25.74 286.86 25.74 Z M 240.49 2.62 C 240.54 1.52 241.43 0.66 242.5 0.67 L 288.37 0.67 C 289.44 0.66 290.33 1.52 290.38 2.62 L 290.43 14.42 C 290.43 14.98 290.21 15.51 289.82 15.9 C 289.43 16.28 288.91 16.49 288.37 16.48 L 242.5 16.48 C 241.97 16.48 241.45 16.26 241.08 15.88 C 240.7 15.49 240.49 14.97 240.49 14.42 Z M 246.53 12.73 C 246.53 11.74 245.74 10.93 244.77 10.93 C 243.79 10.93 243 11.74 243 12.73 C 243 13.72 243.79 14.53 244.77 14.53 C 245.74 14.53 246.53 13.72 246.53 12.73 Z M 276.74 12.58 C 276.43 12.58 276.18 12.83 276.18 13.14 C 276.18 13.45 276.43 13.71 276.74 13.71 L 286.81 13.71 C 287.11 13.71 287.36 13.45 287.36 13.14 C 287.36 12.83 287.11 12.58 286.81 12.58 Z M 276.74 10.63 C 276.43 10.63 276.18 10.88 276.18 11.19 C 276.18 11.5 276.43 11.76 276.74 11.76 L 286.81 11.76 C 287.11 11.76 287.36 11.5 287.36 11.19 C 287.36 10.88 287.11 10.63 286.81 10.63 Z M 276.74 8.62 C 276.43 8.62 276.18 8.88 276.18 9.19 C 276.18 9.5 276.43 9.75 276.74 9.75 L 286.81 9.75 C 287.11 9.75 287.36 9.5 287.36 9.19 C 287.36 8.88 287.11 8.62 286.81 8.62 Z M 240.54 36.79 C 240.6 35.69 241.48 34.84 242.56 34.84 L 288.42 34.84 C 289.5 34.84 290.38 35.69 290.44 36.79 L 290.49 48.6 C 290.49 49.15 290.27 49.68 289.88 50.07 C 289.49 50.45 288.97 50.66 288.42 50.65 L 242.56 50.65 C 241.44 50.65 240.54 49.73 240.54 48.6 Z M 246.58 46.9 C 246.58 45.91 245.79 45.11 244.82 45.11 C 243.85 45.11 243.06 45.91 243.06 46.9 C 243.06 47.9 243.85 48.7 244.82 48.7 C 245.79 48.7 246.58 47.9 246.58 46.9 Z M 276.79 46.75 C 276.49 46.75 276.24 47 276.24 47.31 C 276.24 47.63 276.49 47.88 276.79 47.88 L 286.86 47.88 C 287.17 47.88 287.42 47.63 287.42 47.31 C 287.42 47 287.17 46.75 286.86 46.75 Z M 276.79 44.8 C 276.49 44.8 276.24 45.05 276.24 45.36 C 276.24 45.67 276.49 45.93 276.79 45.93 L 286.86 45.93 C 287.17 45.93 287.42 45.67 287.42 45.36 C 287.42 45.05 287.17 44.8 286.86 44.8 Z M 276.79 42.8 C 276.49 42.8 276.24 43.05 276.24 43.36 C 276.24 43.67 276.49 43.92 276.79 43.92 L 286.86 43.92 C 287.17 43.92 287.42 43.67 287.42 43.36 C 287.42 43.05 287.17 42.8 286.86 42.8 Z" fill="#af955e" stroke="none" pointer-events="none"/><path d="M 120.55 19.73 C 120.61 18.64 121.58 17.78 122.76 17.78 L 173.22 17.78 C 174.4 17.78 175.37 18.64 175.43 19.73 L 175.49 31.54 C 175.49 32.1 175.25 32.63 174.82 33.01 C 174.39 33.4 173.81 33.61 173.22 33.6 L 122.76 33.6 C 122.18 33.6 121.61 33.38 121.2 32.99 C 120.78 32.61 120.55 32.09 120.55 31.54 Z M 127.19 29.85 C 127.19 28.86 126.33 28.05 125.25 28.05 C 124.18 28.05 123.32 28.86 123.32 29.85 C 123.32 30.84 124.18 31.64 125.25 31.64 C 126.33 31.64 127.19 30.84 127.19 29.85 Z M 160.42 29.69 C 160.09 29.69 159.81 29.95 159.81 30.26 C 159.81 30.57 160.09 30.82 160.42 30.82 L 171.5 30.82 C 171.84 30.82 172.11 30.57 172.11 30.26 C 172.11 29.95 171.84 29.69 171.5 29.69 Z M 160.42 27.74 C 160.09 27.74 159.81 28 159.81 28.31 C 159.81 28.62 160.09 28.87 160.42 28.87 L 171.5 28.87 C 171.84 28.87 172.11 28.62 172.11 28.31 C 172.11 28 171.84 27.74 171.5 27.74 Z M 160.42 25.74 C 160.09 25.74 159.81 25.99 159.81 26.31 C 159.81 26.62 160.09 26.87 160.42 26.87 L 171.5 26.87 C 171.84 26.87 172.11 26.62 172.11 26.31 C 172.11 25.99 171.84 25.74 171.5 25.74 Z M 120.49 2.62 C 120.55 1.52 121.52 0.66 122.7 0.67 L 173.15 0.67 C 174.34 0.66 175.31 1.52 175.37 2.62 L 175.43 14.42 C 175.43 14.98 175.18 15.51 174.76 15.9 C 174.33 16.28 173.75 16.49 173.15 16.48 L 122.7 16.48 C 121.48 16.48 120.49 15.56 120.49 14.42 Z M 127.13 12.73 C 127.13 12.09 126.76 11.5 126.16 11.17 C 125.56 10.85 124.82 10.85 124.22 11.17 C 123.63 11.5 123.26 12.09 123.26 12.73 C 123.26 13.37 123.63 13.97 124.22 14.29 C 124.82 14.61 125.56 14.61 126.16 14.29 C 126.76 13.97 127.13 13.37 127.13 12.73 Z M 160.36 12.58 C 160.03 12.58 159.75 12.83 159.75 13.14 C 159.75 13.45 160.03 13.71 160.36 13.71 L 171.44 13.71 C 171.77 13.71 172.05 13.45 172.05 13.14 C 172.05 12.83 171.77 12.58 171.44 12.58 Z M 160.36 10.63 C 160.03 10.63 159.75 10.88 159.75 11.19 C 159.75 11.5 160.03 11.76 160.36 11.76 L 171.44 11.76 C 171.77 11.76 172.05 11.5 172.05 11.19 C 172.05 10.88 171.77 10.63 171.44 10.63 Z M 160.36 8.62 C 160.03 8.62 159.75 8.88 159.75 9.19 C 159.75 9.5 160.03 9.75 160.36 9.75 L 171.44 9.75 C 171.77 9.75 172.05 9.5 172.05 9.19 C 172.05 8.88 171.77 8.62 171.44 8.62 Z M 120.55 36.79 C 120.61 35.69 121.58 34.84 122.76 34.84 L 173.22 34.84 C 174.4 34.84 175.37 35.69 175.43 36.79 L 175.49 48.6 C 175.49 49.15 175.25 49.68 174.82 50.07 C 174.39 50.45 173.81 50.66 173.22 50.65 L 122.76 50.65 C 122.18 50.65 121.61 50.43 121.2 50.05 C 120.78 49.66 120.55 49.14 120.55 48.6 Z M 127.19 46.9 C 127.19 45.91 126.33 45.11 125.25 45.11 C 124.18 45.11 123.32 45.91 123.32 46.9 C 123.32 47.9 124.18 48.7 125.25 48.7 C 126.33 48.7 127.19 47.9 127.19 46.9 Z M 160.42 46.75 C 160.09 46.75 159.81 47 159.81 47.31 C 159.81 47.63 160.09 47.88 160.42 47.88 L 171.5 47.88 C 171.84 47.88 172.11 47.63 172.11 47.31 C 172.11 47 171.84 46.75 171.5 46.75 Z M 160.42 44.8 C 160.09 44.8 159.81 45.05 159.81 45.36 C 159.81 45.67 160.09 45.93 160.42 45.93 L 171.5 45.93 C 171.84 45.93 172.11 45.67 172.11 45.36 C 172.11 45.05 171.84 44.8 171.5 44.8 Z M 160.42 42.8 C 160.09 42.8 159.81 43.05 159.81 43.36 C 159.81 43.67 160.09 43.92 160.42 43.92 L 171.5 43.92 C 171.84 43.92 172.11 43.67 172.11 43.36 C 172.11 43.05 171.84 42.8 171.5 42.8 Z" fill="#af955e" stroke="none" pointer-events="none"/><path d="M 0.54 19.73 C 0.6 18.64 1.48 17.78 2.56 17.78 L 48.42 17.78 C 49.5 17.78 50.38 18.64 50.44 19.73 L 50.49 31.54 C 50.49 32.1 50.27 32.63 49.88 33.01 C 49.49 33.4 48.97 33.61 48.42 33.6 L 2.56 33.6 C 2.02 33.6 1.51 33.38 1.13 32.99 C 0.75 32.61 0.54 32.09 0.54 31.54 Z M 6.58 29.85 C 6.58 28.86 5.79 28.05 4.82 28.05 C 3.85 28.05 3.06 28.86 3.06 29.85 C 3.06 30.84 3.85 31.64 4.82 31.64 C 5.79 31.64 6.58 30.84 6.58 29.85 Z M 36.79 29.69 C 36.49 29.69 36.24 29.95 36.24 30.26 C 36.24 30.57 36.49 30.82 36.79 30.82 L 46.86 30.82 C 47.17 30.82 47.42 30.57 47.42 30.26 C 47.42 29.95 47.17 29.69 46.86 29.69 Z M 36.79 27.74 C 36.49 27.74 36.24 28 36.24 28.31 C 36.24 28.62 36.49 28.87 36.79 28.87 L 46.86 28.87 C 47.17 28.87 47.42 28.62 47.42 28.31 C 47.42 28 47.17 27.74 46.86 27.74 Z M 36.79 25.74 C 36.49 25.74 36.24 25.99 36.24 26.31 C 36.24 26.62 36.49 26.87 36.79 26.87 L 46.86 26.87 C 47.17 26.87 47.42 26.62 47.42 26.31 C 47.42 25.99 47.17 25.74 46.86 25.74 Z M 0.49 2.62 C 0.54 1.52 1.43 0.66 2.5 0.67 L 48.37 0.67 C 49.44 0.66 50.33 1.52 50.38 2.62 L 50.43 14.42 C 50.43 14.98 50.21 15.51 49.82 15.9 C 49.43 16.28 48.91 16.49 48.37 16.48 L 2.5 16.48 C 1.97 16.48 1.45 16.26 1.08 15.88 C 0.7 15.49 0.49 14.97 0.49 14.42 Z M 6.53 12.73 C 6.53 11.74 5.74 10.93 4.77 10.93 C 3.79 10.93 3 11.74 3 12.73 C 3 13.72 3.79 14.53 4.77 14.53 C 5.74 14.53 6.53 13.72 6.53 12.73 Z M 36.74 12.58 C 36.43 12.58 36.18 12.83 36.18 13.14 C 36.18 13.45 36.43 13.71 36.74 13.71 L 46.81 13.71 C 47.11 13.71 47.36 13.45 47.36 13.14 C 47.36 12.83 47.11 12.58 46.81 12.58 Z M 36.74 10.63 C 36.43 10.63 36.18 10.88 36.18 11.19 C 36.18 11.5 36.43 11.76 36.74 11.76 L 46.81 11.76 C 47.11 11.76 47.36 11.5 47.36 11.19 C 47.36 10.88 47.11 10.63 46.81 10.63 Z M 36.74 8.62 C 36.43 8.62 36.18 8.88 36.18 9.19 C 36.18 9.5 36.43 9.75 36.74 9.75 L 46.81 9.75 C 47.11 9.75 47.36 9.5 47.36 9.19 C 47.36 8.88 47.11 8.62 46.81 8.62 Z M 0.54 36.79 C 0.6 35.69 1.48 34.84 2.56 34.84 L 48.42 34.84 C 49.5 34.84 50.38 35.69 50.44 36.79 L 50.49 48.6 C 50.49 49.15 50.27 49.68 49.88 50.07 C 49.49 50.45 48.97 50.66 48.42 50.65 L 2.56 50.65 C 1.44 50.65 0.54 49.73 0.54 48.6 Z M 6.58 46.9 C 6.58 45.91 5.79 45.11 4.82 45.11 C 3.85 45.11 3.06 45.91 3.06 46.9 C 3.06 47.9 3.85 48.7 4.82 48.7 C 5.79 48.7 6.58 47.9 6.58 46.9 Z M 36.79 46.75 C 36.49 46.75 36.24 47 36.24 47.31 C 36.24 47.63 36.49 47.88 36.79 47.88 L 46.86 47.88 C 47.17 47.88 47.42 47.63 47.42 47.31 C 47.42 47 47.17 46.75 46.86 46.75 Z M 36.79 44.8 C 36.49 44.8 36.24 45.05 36.24 45.36 C 36.24 45.67 36.49 45.93 36.79 45.93 L 46.86 45.93 C 47.17 45.93 47.42 45.67 47.42 45.36 C 47.42 45.05 47.17 44.8 46.86 44.8 Z M 36.79 42.8 C 36.49 42.8 36.24 43.05 36.24 43.36 C 36.24 43.67 36.49 43.92 36.79 43.92 L 46.86 43.92 C 47.17 43.92 47.42 43.67 47.42 43.36 C 47.42 43.05 47.17 42.8 46.86 42.8 Z" fill="#af955e" stroke="none" pointer-events="none"/><path d="M 50.49 25.67 L 120.49 25.67" fill="none" stroke="#af625e" stroke-width="3" stroke-miterlimit="10" pointer-events="none"/><path d="M 175.49 25.67 L 240.49 25.67" fill="none" stroke="#af625e" stroke-width="3" stroke-miterlimit="10" pointer-events="none"/><path d="M 120.49 145.51 C 120.55 144.48 121.52 143.66 122.7 143.67 L 173.21 143.67 C 174.4 143.66 175.37 144.48 175.43 145.51 L 175.49 156.71 C 175.49 157.23 175.25 157.73 174.82 158.1 C 174.39 158.47 173.81 158.66 173.21 158.65 L 122.7 158.65 C 121.48 158.65 120.49 157.78 120.49 156.71 Z M 127.14 155.1 C 127.14 154.49 126.77 153.93 126.17 153.62 C 125.57 153.32 124.83 153.32 124.23 153.62 C 123.63 153.93 123.26 154.49 123.26 155.1 C 123.26 155.71 123.63 156.27 124.23 156.57 C 124.83 156.88 125.57 156.88 126.17 156.57 C 126.77 156.27 127.14 155.71 127.14 155.1 Z M 160.41 154.95 C 160.07 154.95 159.8 155.19 159.8 155.49 C 159.8 155.78 160.07 156.02 160.41 156.02 L 171.49 156.02 C 171.83 156.02 172.1 155.78 172.1 155.49 C 172.1 155.19 171.83 154.95 171.49 154.95 Z M 160.41 153.1 C 160.07 153.1 159.8 153.34 159.8 153.64 C 159.8 153.94 160.07 154.18 160.41 154.18 L 171.49 154.18 C 171.83 154.18 172.1 153.94 172.1 153.64 C 172.1 153.34 171.83 153.1 171.49 153.1 Z M 160.41 151.21 C 160.07 151.21 159.8 151.45 159.8 151.74 C 159.8 152.04 160.07 152.28 160.41 152.28 L 171.49 152.28 C 171.83 152.28 172.1 152.04 172.1 151.74 C 172.1 151.45 171.83 151.21 171.49 151.21 Z" fill="#af955e" stroke="none" pointer-events="none"/><path d="M 127.72 233.94 L 127.72 212.01 C 128.03 211.29 128.7 210.78 129.48 210.67 L 167.34 210.67 C 168.3 210.77 169.09 211.47 169.3 212.41 L 169.3 233.94 L 173.31 238.27 C 173.49 238.81 173.32 239.38 172.84 239.83 C 172.37 240.28 171.63 240.59 170.8 240.67 L 126.22 240.67 C 125.39 240.59 124.64 240.3 124.15 239.84 C 123.66 239.39 123.49 238.82 123.66 238.27 Z M 129.38 233.94 L 167.79 233.99 L 167.79 212.86 C 167.61 212.33 167.15 211.94 166.59 211.86 L 130.38 211.86 C 129.83 212.05 129.44 212.54 129.38 213.11 Z M 144.62 236.88 L 143.27 238.82 L 152.7 238.82 L 151.65 236.88 Z" fill="#af955e" stroke="none" pointer-events="none"/><path d="M 33.46 66.87 L 107.51 124.46" fill="none" stroke="#af625e" stroke-width="3" stroke-miterlimit="10" pointer-events="none"/><path d="M 28.13 62.73 L 38 64.7 L 33.46 66.87 L 32.48 71.8 Z" fill="#af625e" stroke="#af625e" stroke-width="3" stroke-miterlimit="10" pointer-events="none"/><path d="M 112.84 128.61 L 102.97 126.63 L 107.51 124.46 L 108.5 119.53 Z" fill="#af625e" stroke="#af625e" stroke-width="3" stroke-miterlimit="10" pointer-events="none"/><path d="M 148.49 70.77 L 148.49 90.67 Q 148.49 100.67 148.49 110.61 L 148.49 120.56" fill="none" stroke="#af625e" stroke-width="3" stroke-miterlimit="10" pointer-events="none"/><path d="M 148.49 64.02 L 152.99 73.02 L 148.49 70.77 L 143.99 73.02 Z" fill="#af625e" stroke="#af625e" stroke-width="3" stroke-miterlimit="10" pointer-events="none"/><path d="M 148.49 127.31 L 143.99 118.31 L 148.49 120.56 L 152.99 118.31 Z" fill="#af625e" stroke="#af625e" stroke-width="3" stroke-miterlimit="10" pointer-events="none"/><path d="M 257.51 66.87 L 183.46 124.46" fill="none" stroke="#af625e" stroke-width="3" stroke-miterlimit="10" pointer-events="none"/><path d="M 262.84 62.73 L 258.5 71.8 L 257.51 66.87 L 252.97 64.7 Z" fill="#af625e" stroke="#af625e" stroke-width="3" stroke-miterlimit="10" pointer-events="none"/><path d="M 178.13 128.61 L 182.48 119.53 L 183.46 124.46 L 188 126.63 Z" fill="#af625e" stroke="#af625e" stroke-width="3" stroke-miterlimit="10" pointer-events="none"/><path d="M 148.49 168.77 L 148.49 188.67 Q 148.49 198.67 148.49 199.61 L 148.49 200.56" fill="none" stroke="#af625e" stroke-width="3" stroke-miterlimit="10" pointer-events="none"/><path d="M 148.49 162.02 L 152.99 171.02 L 148.49 168.77 L 143.99 171.02 Z" fill="#af625e" stroke="#af625e" stroke-width="3" stroke-miterlimit="10" pointer-events="none"/><path d="M 148.49 207.31 L 143.99 198.31 L 148.49 200.56 L 152.99 198.31 Z" fill="#af625e" stroke="#af625e" stroke-width="3" stroke-miterlimit="10" pointer-events="none"/></g></svg>