<?xml version="1.0" encoding="UTF-8"?>
<!DOCTYPE svg PUBLIC "-//W3C//DTD SVG 1.1//EN" "http://www.w3.org/Graphics/SVG/1.1/DTD/svg11.dtd">
<svg xmlns="http://www.w3.org/2000/svg" xmlns:xlink="http://www.w3.org/1999/xlink" width="153px" height="353px" version="1.1"><defs/><g transform="translate(0.5,0.5)"><path d="M 75 211 L 75 104.84" fill="none" stroke="#af625e" stroke-width="5" stroke-miterlimit="10" pointer-events="none"/><path d="M 75 96.59 L 80.5 107.59 L 75 104.84 L 69.5 107.59 Z" fill="#af625e" stroke="#af625e" stroke-width="5" stroke-miterlimit="10" pointer-events="none"/><path d="M 1 6.55 C 1.16 3.44 3.82 1 7.05 1 L 144.8 1 C 148.03 1 150.69 3.44 150.85 6.55 L 151 40.12 C 151 41.69 150.34 43.2 149.18 44.3 C 148.01 45.4 146.43 46 144.8 45.96 L 7.05 45.96 C 3.71 45.96 1 43.34 1 40.12 Z M 19.15 35.3 C 19.15 32.48 16.78 30.19 13.85 30.19 C 10.93 30.19 8.56 32.48 8.56 35.3 C 8.56 38.12 10.93 40.41 13.85 40.41 C 16.78 40.41 19.15 38.12 19.15 35.3 Z M 109.87 34.86 C 108.95 34.86 108.21 35.58 108.21 36.47 C 108.21 37.36 108.95 38.07 109.87 38.07 L 140.11 38.07 C 141.03 38.07 141.78 37.36 141.78 36.47 C 141.78 35.58 141.03 34.86 140.11 34.86 Z M 109.87 29.32 C 108.95 29.32 108.21 30.04 108.21 30.92 C 108.21 31.81 108.95 32.53 109.87 32.53 L 140.11 32.53 C 141.03 32.53 141.78 31.81 141.78 30.92 C 141.78 30.04 141.03 29.32 140.11 29.32 Z M 109.87 23.62 C 108.95 23.62 108.21 24.34 108.21 25.23 C 108.21 26.12 108.95 26.84 109.87 26.84 L 140.11 26.84 C 141.03 26.84 141.78 26.12 141.78 25.23 C 141.78 24.34 141.03 23.62 140.11 23.62 Z" fill="#af955e" stroke="none" pointer-events="none"/><path d="M 13.71 330.82 L 13.71 265.04 C 14.64 262.87 16.63 261.34 18.98 261 L 132.57 261 C 135.45 261.32 137.81 263.42 138.44 266.23 L 138.44 330.82 L 150.47 343.82 C 151 345.44 150.49 347.13 149.06 348.49 C 147.64 349.85 145.42 350.76 142.95 351 L 9.2 351 C 6.7 350.79 4.45 349.89 2.99 348.53 C 1.53 347.16 1 345.46 1.53 343.82 Z M 18.68 330.82 L 133.92 330.97 L 133.92 267.58 C 133.38 265.99 131.99 264.83 130.31 264.59 L 21.69 264.59 C 20.04 265.15 18.87 266.61 18.68 268.33 Z M 64.42 339.64 L 60.35 345.47 L 88.64 345.47 L 85.48 339.64 Z" fill="#af955e" stroke="none" pointer-events="none"/></g></svg>