<?xml version="1.0" encoding="UTF-8"?>
<!DOCTYPE svg PUBLIC "-//W3C//DTD SVG 1.1//EN" "http://www.w3.org/Graphics/SVG/1.1/DTD/svg11.dtd">
<svg xmlns="http://www.w3.org/2000/svg" xmlns:xlink="http://www.w3.org/1999/xlink" width="203px" height="343px" version="1.1"><defs/><g transform="translate(0.5,0.5)"><path d="M 34.42 323.1 L 34.42 264.62 C 35.4 262.7 37.53 261.34 40.04 261.04 L 161.2 261.04 C 164.27 261.32 166.79 263.19 167.46 265.69 L 167.46 323.1 L 180.3 334.66 C 180.86 336.1 180.31 337.6 178.79 338.81 C 177.27 340.02 174.91 340.82 172.27 341.04 L 29.6 341.04 C 26.94 340.85 24.54 340.05 22.98 338.84 C 21.43 337.62 20.86 336.11 21.42 334.66 Z M 39.71 323.1 L 162.64 323.23 L 162.64 266.88 C 162.06 265.47 160.58 264.44 158.79 264.22 L 42.92 264.22 C 41.17 264.73 39.92 266.02 39.71 267.55 Z M 88.5 330.94 L 84.17 336.12 L 114.34 336.12 L 110.97 330.94 Z" fill="#af955e" stroke="none" pointer-events="none"/><path d="M 0.86 5.97 C 1.07 3.2 4.62 1.03 8.92 1.04 L 192.59 1.04 C 196.89 1.03 200.44 3.2 200.66 5.97 L 200.86 35.81 C 200.86 37.21 199.98 38.55 198.43 39.52 C 196.87 40.5 194.77 41.03 192.59 41 L 8.92 41 C 6.78 41 4.73 40.45 3.22 39.48 C 1.71 38.5 0.86 37.18 0.86 35.81 Z M 25.05 31.53 C 25.05 29.02 21.89 26.98 18 26.98 C 14.1 26.98 10.94 29.02 10.94 31.53 C 10.94 34.03 14.1 36.07 18 36.07 C 21.89 36.07 25.05 34.03 25.05 31.53 Z M 146.02 31.14 C 144.79 31.14 143.8 31.77 143.8 32.56 C 143.8 33.35 144.79 33.99 146.02 33.99 L 186.34 33.99 C 187.57 33.99 188.56 33.35 188.56 32.56 C 188.56 31.77 187.57 31.14 186.34 31.14 Z M 146.02 26.21 C 144.79 26.21 143.8 26.84 143.8 27.63 C 143.8 28.42 144.79 29.06 146.02 29.06 L 186.34 29.06 C 187.57 29.06 188.56 28.42 188.56 27.63 C 188.56 26.84 187.57 26.21 186.34 26.21 Z M 146.02 21.15 C 144.79 21.15 143.8 21.78 143.8 22.57 C 143.8 23.36 144.79 24 146.02 24 L 186.34 24 C 187.57 24 188.56 23.36 188.56 22.57 C 188.56 21.78 187.57 21.15 186.34 21.15 Z" fill="#af955e" stroke="none" pointer-events="none"/><path d="M 100.86 211.04 L 100.86 104.88" fill="none" stroke="#af625e" stroke-width="5" stroke-miterlimit="10" pointer-events="none"/><path d="M 100.86 96.63 L 106.36 107.63 L 100.86 104.88 L 95.36 107.63 Z" fill="#af625e" stroke="#af625e" stroke-width="5" stroke-miterlimit="10" pointer-events="none"/></g></svg>