<?xml version="1.0" encoding="UTF-8"?>
<!DOCTYPE svg PUBLIC "-//W3C//DTD SVG 1.1//EN" "http://www.w3.org/Graphics/SVG/1.1/DTD/svg11.dtd">
<svg xmlns="http://www.w3.org/2000/svg" xmlns:xlink="http://www.w3.org/1999/xlink" width="293px" height="244px" version="1.1"><defs/><g transform="translate(0.5,0.5)"><path d="M 241.48 20.22 C 241.53 19.12 242.42 18.26 243.49 18.27 L 289.36 18.27 C 290.44 18.26 291.32 19.12 291.38 20.22 L 291.43 32.02 C 291.43 32.58 291.21 33.11 290.82 33.5 C 290.43 33.88 289.9 34.09 289.36 34.08 L 243.49 34.08 C 242.96 34.08 242.45 33.86 242.07 33.48 C 241.69 33.09 241.48 32.57 241.48 32.02 Z M 247.52 30.33 C 247.52 29.34 246.73 28.53 245.76 28.53 C 244.79 28.53 244 29.34 244 30.33 C 244 31.32 244.79 32.13 245.76 32.13 C 246.73 32.13 247.52 31.32 247.52 30.33 Z M 277.73 30.18 C 277.43 30.18 277.18 30.43 277.18 30.74 C 277.18 31.05 277.43 31.31 277.73 31.31 L 287.8 31.31 C 288.11 31.31 288.35 31.05 288.35 30.74 C 288.35 30.43 288.11 30.18 287.8 30.18 Z M 277.73 28.23 C 277.43 28.23 277.18 28.48 277.18 28.79 C 277.18 29.1 277.43 29.36 277.73 29.36 L 287.8 29.36 C 288.11 29.36 288.35 29.1 288.35 28.79 C 288.35 28.48 288.11 28.23 287.8 28.23 Z M 277.73 26.22 C 277.43 26.22 277.18 26.48 277.18 26.79 C 277.18 27.1 277.43 27.35 277.73 27.35 L 287.8 27.35 C 288.11 27.35 288.35 27.1 288.35 26.79 C 288.35 26.48 288.11 26.22 287.8 26.22 Z M 241.43 3.1 C 241.48 2.01 242.37 1.15 243.44 1.15 L 289.31 1.15 C 290.38 1.15 291.27 2.01 291.32 3.1 L 291.37 14.91 C 291.37 15.46 291.15 15.99 290.76 16.38 C 290.37 16.77 289.85 16.98 289.31 16.96 L 243.44 16.96 C 242.33 16.96 241.43 16.04 241.43 14.91 Z M 247.47 13.21 C 247.47 12.57 247.13 11.98 246.59 11.66 C 246.04 11.34 245.37 11.34 244.82 11.66 C 244.28 11.98 243.94 12.57 243.94 13.21 C 243.94 13.86 244.28 14.45 244.82 14.77 C 245.37 15.09 246.04 15.09 246.59 14.77 C 247.13 14.45 247.47 13.86 247.47 13.21 Z M 277.68 13.06 C 277.37 13.06 277.12 13.31 277.12 13.62 C 277.12 13.94 277.37 14.19 277.68 14.19 L 287.75 14.19 C 288.05 14.19 288.3 13.94 288.3 13.62 C 288.3 13.31 288.05 13.06 287.75 13.06 Z M 277.68 11.11 C 277.37 11.11 277.12 11.36 277.12 11.67 C 277.12 11.99 277.37 12.24 277.68 12.24 L 287.75 12.24 C 288.05 12.24 288.3 11.99 288.3 11.67 C 288.3 11.36 288.05 11.11 287.75 11.11 Z M 277.68 9.11 C 277.37 9.11 277.12 9.36 277.12 9.67 C 277.12 9.98 277.37 10.24 277.68 10.24 L 287.75 10.24 C 288.05 10.24 288.3 9.98 288.3 9.67 C 288.3 9.36 288.05 9.11 287.75 9.11 Z M 241.48 37.27 C 241.53 36.18 242.42 35.32 243.49 35.32 L 289.36 35.32 C 290.44 35.32 291.32 36.18 291.38 37.27 L 291.43 49.08 C 291.43 49.63 291.21 50.16 290.82 50.55 C 290.43 50.94 289.9 51.15 289.36 51.13 L 243.49 51.13 C 242.96 51.13 242.45 50.92 242.07 50.53 C 241.69 50.15 241.48 49.62 241.48 49.08 Z M 247.52 47.39 C 247.52 46.39 246.73 45.59 245.76 45.59 C 244.79 45.59 244 46.39 244 47.39 C 244 48.38 244.79 49.18 245.76 49.18 C 246.73 49.18 247.52 48.38 247.52 47.39 Z M 277.73 47.23 C 277.43 47.23 277.18 47.48 277.18 47.8 C 277.18 48.11 277.43 48.36 277.73 48.36 L 287.8 48.36 C 288.11 48.36 288.35 48.11 288.35 47.8 C 288.35 47.48 288.11 47.23 287.8 47.23 Z M 277.73 45.28 C 277.43 45.28 277.18 45.53 277.18 45.85 C 277.18 46.16 277.43 46.41 277.73 46.41 L 287.8 46.41 C 288.11 46.41 288.35 46.16 288.35 45.85 C 288.35 45.53 288.11 45.28 287.8 45.28 Z M 277.73 43.28 C 277.43 43.28 277.18 43.53 277.18 43.84 C 277.18 44.16 277.43 44.41 277.73 44.41 L 287.8 44.41 C 288.11 44.41 288.35 44.16 288.35 43.84 C 288.35 43.53 288.11 43.28 287.8 43.28 Z" fill="#f1bf57" stroke="none" pointer-events="none"/><path d="M 121.49 20.22 C 121.55 19.12 122.52 18.26 123.7 18.27 L 174.15 18.27 C 175.34 18.26 176.31 19.12 176.37 20.22 L 176.43 32.02 C 176.43 32.58 176.18 33.11 175.76 33.5 C 175.33 33.88 174.75 34.09 174.15 34.08 L 123.7 34.08 C 122.48 34.08 121.49 33.16 121.49 32.02 Z M 128.13 30.33 C 128.13 29.34 127.26 28.53 126.19 28.53 C 125.12 28.53 124.26 29.34 124.26 30.33 C 124.26 31.32 125.12 32.13 126.19 32.13 C 127.26 32.13 128.13 31.32 128.13 30.33 Z M 161.36 30.18 C 161.03 30.18 160.75 30.43 160.75 30.74 C 160.75 31.05 161.03 31.31 161.36 31.31 L 172.44 31.31 C 172.77 31.31 173.05 31.05 173.05 30.74 C 173.05 30.43 172.77 30.18 172.44 30.18 Z M 161.36 28.23 C 161.03 28.23 160.75 28.48 160.75 28.79 C 160.75 29.1 161.03 29.36 161.36 29.36 L 172.44 29.36 C 172.77 29.36 173.05 29.1 173.05 28.79 C 173.05 28.48 172.77 28.23 172.44 28.23 Z M 161.36 26.22 C 161.03 26.22 160.75 26.48 160.75 26.79 C 160.75 27.1 161.03 27.35 161.36 27.35 L 172.44 27.35 C 172.77 27.35 173.05 27.1 173.05 26.79 C 173.05 26.48 172.77 26.22 172.44 26.22 Z M 121.43 3.1 C 121.48 2.01 122.46 1.15 123.64 1.15 L 174.09 1.15 C 175.28 1.15 176.25 2.01 176.31 3.1 L 176.36 14.91 C 176.36 15.46 176.12 15.99 175.7 16.38 C 175.27 16.77 174.69 16.98 174.09 16.96 L 123.64 16.96 C 123.05 16.96 122.49 16.75 122.07 16.36 C 121.66 15.98 121.43 15.45 121.43 14.91 Z M 128.07 13.21 C 128.07 12.22 127.2 11.42 126.13 11.42 C 125.06 11.42 124.19 12.22 124.19 13.21 C 124.19 14.21 125.06 15.01 126.13 15.01 C 127.2 15.01 128.07 14.21 128.07 13.21 Z M 161.3 13.06 C 160.96 13.06 160.69 13.31 160.69 13.62 C 160.69 13.94 160.96 14.19 161.3 14.19 L 172.38 14.19 C 172.71 14.19 172.99 13.94 172.99 13.62 C 172.99 13.31 172.71 13.06 172.38 13.06 Z M 161.3 11.11 C 160.96 11.11 160.69 11.36 160.69 11.67 C 160.69 11.99 160.96 12.24 161.3 12.24 L 172.38 12.24 C 172.71 12.24 172.99 11.99 172.99 11.67 C 172.99 11.36 172.71 11.11 172.38 11.11 Z M 161.3 9.11 C 160.96 9.11 160.69 9.36 160.69 9.67 C 160.69 9.98 160.96 10.24 161.3 10.24 L 172.38 10.24 C 172.71 10.24 172.99 9.98 172.99 9.67 C 172.99 9.36 172.71 9.11 172.38 9.11 Z M 121.49 37.27 C 121.55 36.18 122.52 35.32 123.7 35.32 L 174.15 35.32 C 175.34 35.32 176.31 36.18 176.37 37.27 L 176.43 49.08 C 176.43 49.63 176.18 50.16 175.76 50.55 C 175.33 50.94 174.75 51.15 174.15 51.13 L 123.7 51.13 C 122.48 51.13 121.49 50.21 121.49 49.08 Z M 128.13 47.39 C 128.13 46.39 127.26 45.59 126.19 45.59 C 125.12 45.59 124.26 46.39 124.26 47.39 C 124.26 48.38 125.12 49.18 126.19 49.18 C 127.26 49.18 128.13 48.38 128.13 47.39 Z M 161.36 47.23 C 161.03 47.23 160.75 47.48 160.75 47.8 C 160.75 48.11 161.03 48.36 161.36 48.36 L 172.44 48.36 C 172.77 48.36 173.05 48.11 173.05 47.8 C 173.05 47.48 172.77 47.23 172.44 47.23 Z M 161.36 45.28 C 161.03 45.28 160.75 45.53 160.75 45.85 C 160.75 46.16 161.03 46.41 161.36 46.41 L 172.44 46.41 C 172.77 46.41 173.05 46.16 173.05 45.85 C 173.05 45.53 172.77 45.28 172.44 45.28 Z M 161.36 43.28 C 161.03 43.28 160.75 43.53 160.75 43.84 C 160.75 44.16 161.03 44.41 161.36 44.41 L 172.44 44.41 C 172.77 44.41 173.05 44.16 173.05 43.84 C 173.05 43.53 172.77 43.28 172.44 43.28 Z" fill="#f1bf57" stroke="none" pointer-events="none"/><path d="M 1.48 20.22 C 1.53 19.12 2.42 18.26 3.49 18.27 L 49.36 18.27 C 50.44 18.26 51.32 19.12 51.38 20.22 L 51.43 32.02 C 51.43 32.58 51.21 33.11 50.82 33.5 C 50.43 33.88 49.9 34.09 49.36 34.08 L 3.49 34.08 C 2.96 34.08 2.45 33.86 2.07 33.48 C 1.69 33.09 1.48 32.57 1.48 32.02 Z M 7.52 30.33 C 7.52 29.34 6.73 28.53 5.76 28.53 C 4.79 28.53 4 29.34 4 30.33 C 4 31.32 4.79 32.13 5.76 32.13 C 6.73 32.13 7.52 31.32 7.52 30.33 Z M 37.73 30.18 C 37.43 30.18 37.18 30.43 37.18 30.74 C 37.18 31.05 37.43 31.31 37.73 31.31 L 47.8 31.31 C 48.11 31.31 48.35 31.05 48.35 30.74 C 48.35 30.43 48.11 30.18 47.8 30.18 Z M 37.73 28.23 C 37.43 28.23 37.18 28.48 37.18 28.79 C 37.18 29.1 37.43 29.36 37.73 29.36 L 47.8 29.36 C 48.11 29.36 48.35 29.1 48.35 28.79 C 48.35 28.48 48.11 28.23 47.8 28.23 Z M 37.73 26.22 C 37.43 26.22 37.18 26.48 37.18 26.79 C 37.18 27.1 37.43 27.35 37.73 27.35 L 47.8 27.35 C 48.11 27.35 48.35 27.1 48.35 26.79 C 48.35 26.48 48.11 26.22 47.8 26.22 Z M 1.43 3.1 C 1.48 2.01 2.37 1.15 3.44 1.15 L 49.31 1.15 C 50.38 1.15 51.27 2.01 51.32 3.1 L 51.37 14.91 C 51.37 15.46 51.15 15.99 50.76 16.38 C 50.37 16.77 49.85 16.98 49.31 16.96 L 3.44 16.96 C 2.33 16.96 1.43 16.04 1.43 14.91 Z M 7.47 13.21 C 7.47 12.57 7.13 11.98 6.59 11.66 C 6.04 11.34 5.37 11.34 4.82 11.66 C 4.28 11.98 3.94 12.57 3.94 13.21 C 3.94 13.86 4.28 14.45 4.82 14.77 C 5.37 15.09 6.04 15.09 6.59 14.77 C 7.13 14.45 7.47 13.86 7.47 13.21 Z M 37.68 13.06 C 37.37 13.06 37.12 13.31 37.12 13.62 C 37.12 13.94 37.37 14.19 37.68 14.19 L 47.75 14.19 C 48.05 14.19 48.3 13.94 48.3 13.62 C 48.3 13.31 48.05 13.06 47.75 13.06 Z M 37.68 11.11 C 37.37 11.11 37.12 11.36 37.12 11.67 C 37.12 11.99 37.37 12.24 37.68 12.24 L 47.75 12.24 C 48.05 12.24 48.3 11.99 48.3 11.67 C 48.3 11.36 48.05 11.11 47.75 11.11 Z M 37.68 9.11 C 37.37 9.11 37.12 9.36 37.12 9.67 C 37.12 9.98 37.37 10.24 37.68 10.24 L 47.75 10.24 C 48.05 10.24 48.3 9.98 48.3 9.67 C 48.3 9.36 48.05 9.11 47.75 9.11 Z M 1.48 37.27 C 1.53 36.18 2.42 35.32 3.49 35.32 L 49.36 35.32 C 50.44 35.32 51.32 36.18 51.38 37.27 L 51.43 49.08 C 51.43 49.63 51.21 50.16 50.82 50.55 C 50.43 50.94 49.9 51.15 49.36 51.13 L 3.49 51.13 C 2.96 51.13 2.45 50.92 2.07 50.53 C 1.69 50.15 1.48 49.62 1.48 49.08 Z M 7.52 47.39 C 7.52 46.39 6.73 45.59 5.76 45.59 C 4.79 45.59 4 46.39 4 47.39 C 4 48.38 4.79 49.18 5.76 49.18 C 6.73 49.18 7.52 48.38 7.52 47.39 Z M 37.73 47.23 C 37.43 47.23 37.18 47.48 37.18 47.8 C 37.18 48.11 37.43 48.36 37.73 48.36 L 47.8 48.36 C 48.11 48.36 48.35 48.11 48.35 47.8 C 48.35 47.48 48.11 47.23 47.8 47.23 Z M 37.73 45.28 C 37.43 45.28 37.18 45.53 37.18 45.85 C 37.18 46.16 37.43 46.41 37.73 46.41 L 47.8 46.41 C 48.11 46.41 48.35 46.16 48.35 45.85 C 48.35 45.53 48.11 45.28 47.8 45.28 Z M 37.73 43.28 C 37.43 43.28 37.18 43.53 37.18 43.84 C 37.18 44.16 37.43 44.41 37.73 44.41 L 47.8 44.41 C 48.11 44.41 48.35 44.16 48.35 43.84 C 48.35 43.53 48.11 43.28 47.8 43.28 Z" fill="#f1bf57" stroke="none" pointer-events="none"/><path d="M 51.43 26.15 L 121.43 26.15" fill="none" stroke="#f15f57" stroke-width="3" stroke-miterlimit="10" pointer-events="none"/><path d="M 176.43 26.15 L 241.43 26.15" fill="none" stroke="#f15f57" stroke-width="3" stroke-miterlimit="10" pointer-events="none"/><path d="M 121.43 146 C 121.48 144.96 122.46 144.15 123.64 144.15 L 174.15 144.15 C 175.34 144.15 176.31 144.96 176.37 146 L 176.43 157.19 C 176.43 157.71 176.18 158.22 175.76 158.58 C 175.33 158.95 174.75 159.15 174.15 159.13 L 123.64 159.13 C 123.06 159.13 122.49 158.93 122.08 158.56 C 121.66 158.2 121.43 157.7 121.43 157.19 Z M 128.08 155.58 C 128.08 154.64 127.21 153.88 126.14 153.88 C 125.07 153.88 124.2 154.64 124.2 155.58 C 124.2 156.52 125.07 157.29 126.14 157.29 C 127.21 157.29 128.08 156.52 128.08 155.58 Z M 161.34 155.44 C 161.01 155.44 160.74 155.68 160.74 155.97 C 160.74 156.27 161.01 156.51 161.34 156.51 L 172.43 156.51 C 172.77 156.51 173.04 156.27 173.04 155.97 C 173.04 155.68 172.77 155.44 172.43 155.44 Z M 161.34 153.59 C 161.01 153.59 160.74 153.83 160.74 154.12 C 160.74 154.42 161.01 154.66 161.34 154.66 L 172.43 154.66 C 172.77 154.66 173.04 154.42 173.04 154.12 C 173.04 153.83 172.77 153.59 172.43 153.59 Z M 161.34 151.69 C 161.01 151.69 160.74 151.93 160.74 152.23 C 160.74 152.52 161.01 152.76 161.34 152.76 L 172.43 152.76 C 172.77 152.76 173.04 152.52 173.04 152.23 C 173.04 151.93 172.77 151.69 172.43 151.69 Z" fill="#f1bf57" stroke="none" pointer-events="none"/><path d="M 128.66 234.42 L 128.66 212.49 C 128.97 211.77 129.64 211.26 130.42 211.15 L 168.28 211.15 C 169.24 211.25 170.03 211.96 170.24 212.89 L 170.24 234.42 L 174.25 238.76 C 174.43 239.3 174.26 239.86 173.78 240.31 C 173.3 240.77 172.57 241.07 171.74 241.15 L 127.16 241.15 C 126.33 241.08 125.57 240.78 125.09 240.32 C 124.6 239.87 124.43 239.3 124.6 238.76 Z M 130.32 234.42 L 168.73 234.47 L 168.73 213.34 C 168.55 212.81 168.09 212.43 167.53 212.34 L 131.32 212.34 C 130.77 212.53 130.38 213.02 130.32 213.59 Z M 145.56 237.36 L 144.21 239.31 L 153.64 239.31 L 152.59 237.36 Z" fill="#f1bf57" stroke="none" pointer-events="none"/><path d="M 34.4 67.35 L 108.45 124.95" fill="none" stroke="#f15f57" stroke-width="3" stroke-miterlimit="10" pointer-events="none"/><path d="M 29.07 63.21 L 38.94 65.18 L 34.4 67.35 L 33.41 72.29 Z" fill="#f15f57" stroke="#f15f57" stroke-width="3" stroke-miterlimit="10" pointer-events="none"/><path d="M 113.78 129.09 L 103.91 127.12 L 108.45 124.95 L 109.44 120.01 Z" fill="#f15f57" stroke="#f15f57" stroke-width="3" stroke-miterlimit="10" pointer-events="none"/><path d="M 149.43 71.25 L 149.43 91.15 Q 149.43 101.15 149.43 111.1 L 149.43 121.04" fill="none" stroke="#f15f57" stroke-width="3" stroke-miterlimit="10" pointer-events="none"/><path d="M 149.43 64.5 L 153.93 73.5 L 149.43 71.25 L 144.93 73.5 Z" fill="#f15f57" stroke="#f15f57" stroke-width="3" stroke-miterlimit="10" pointer-events="none"/><path d="M 149.43 127.79 L 144.93 118.79 L 149.43 121.04 L 153.93 118.79 Z" fill="#f15f57" stroke="#f15f57" stroke-width="3" stroke-miterlimit="10" pointer-events="none"/><path d="M 258.45 67.35 L 184.4 124.95" fill="none" stroke="#f15f57" stroke-width="3" stroke-miterlimit="10" pointer-events="none"/><path d="M 263.78 63.21 L 259.44 72.29 L 258.45 67.35 L 253.91 65.18 Z" fill="#f15f57" stroke="#f15f57" stroke-width="3" stroke-miterlimit="10" pointer-events="none"/><path d="M 179.07 129.09 L 183.41 120.01 L 184.4 124.95 L 188.94 127.12 Z" fill="#f15f57" stroke="#f15f57" stroke-width="3" stroke-miterlimit="10" pointer-events="none"/><path d="M 149.43 169.25 L 149.43 189.15 Q 149.43 199.15 149.43 200.1 L 149.43 201.04" fill="none" stroke="#f15f57" stroke-width="3" stroke-miterlimit="10" pointer-events="none"/><path d="M 149.43 162.5 L 153.93 171.5 L 149.43 169.25 L 144.93 171.5 Z" fill="#f15f57" stroke="#f15f57" stroke-width="3" stroke-miterlimit="10" pointer-events="none"/><path d="M 149.43 207.79 L 144.93 198.79 L 149.43 201.04 L 153.93 198.79 Z" fill="#f15f57" stroke="#f15f57" stroke-width="3" stroke-miterlimit="10" pointer-events="none"/></g></svg>