<?xml version="1.0" encoding="UTF-8"?>
<!DOCTYPE svg PUBLIC "-//W3C//DTD SVG 1.1//EN" "http://www.w3.org/Graphics/SVG/1.1/DTD/svg11.dtd">
<svg xmlns="http://www.w3.org/2000/svg" xmlns:xlink="http://www.w3.org/1999/xlink" width="195px" height="185px" version="1.1"><defs/><g transform="translate(0.5,0.5)"><path d="M 51.41 66.73 L 101.41 66.73" fill="none" stroke="#f15f57" stroke-width="3" stroke-miterlimit="10" pointer-events="none"/><path d="M 1.18 61.01 C 1.24 59.92 2.12 59.06 3.2 59.06 L 49.06 59.06 C 50.14 59.06 51.02 59.92 51.08 61.01 L 51.13 72.82 C 51.13 73.37 50.91 73.9 50.52 74.29 C 50.13 74.68 49.61 74.89 49.06 74.87 L 3.2 74.87 C 2.08 74.87 1.18 73.95 1.18 72.82 Z M 7.22 71.13 C 7.22 70.13 6.43 69.33 5.46 69.33 C 4.49 69.33 3.7 70.13 3.7 71.13 C 3.7 72.12 4.49 72.92 5.46 72.92 C 6.43 72.92 7.22 72.12 7.22 71.13 Z M 37.43 70.97 C 37.13 70.97 36.88 71.22 36.88 71.54 C 36.88 71.85 37.13 72.1 37.43 72.1 L 47.5 72.1 C 47.81 72.1 48.06 71.85 48.06 71.54 C 48.06 71.22 47.81 70.97 47.5 70.97 Z M 37.43 69.02 C 37.13 69.02 36.88 69.27 36.88 69.59 C 36.88 69.9 37.13 70.15 37.43 70.15 L 47.5 70.15 C 47.81 70.15 48.06 69.9 48.06 69.59 C 48.06 69.27 47.81 69.02 47.5 69.02 Z M 37.43 67.02 C 37.13 67.02 36.88 67.27 36.88 67.58 C 36.88 67.89 37.13 68.15 37.43 68.15 L 47.5 68.15 C 47.81 68.15 48.06 67.89 48.06 67.58 C 48.06 67.27 47.81 67.02 47.5 67.02 Z M 1.13 43.89 C 1.18 42.8 2.07 41.94 3.14 41.94 L 49.01 41.94 C 50.08 41.94 50.97 42.8 51.02 43.89 L 51.07 55.7 C 51.07 56.26 50.85 56.79 50.46 57.17 C 50.08 57.56 49.55 57.77 49.01 57.76 L 3.14 57.76 C 2.03 57.76 1.13 56.84 1.13 55.7 Z M 7.17 54.01 C 7.17 53.02 6.38 52.21 5.41 52.21 C 4.43 52.21 3.64 53.02 3.64 54.01 C 3.64 55 4.43 55.81 5.41 55.81 C 6.38 55.81 7.17 55 7.17 54.01 Z M 37.38 53.85 C 37.07 53.85 36.82 54.11 36.82 54.42 C 36.82 54.73 37.07 54.98 37.38 54.98 L 47.45 54.98 C 47.75 54.98 48 54.73 48 54.42 C 48 54.11 47.75 53.85 47.45 53.85 Z M 37.38 51.9 C 37.07 51.9 36.82 52.16 36.82 52.47 C 36.82 52.78 37.07 53.03 37.38 53.03 L 47.45 53.03 C 47.75 53.03 48 52.78 48 52.47 C 48 52.16 47.75 51.9 47.45 51.9 Z M 37.38 49.9 C 37.07 49.9 36.82 50.15 36.82 50.47 C 36.82 50.78 37.07 51.03 37.38 51.03 L 47.45 51.03 C 47.75 51.03 48 50.78 48 50.47 C 48 50.15 47.75 49.9 47.45 49.9 Z M 1.18 78.07 C 1.24 76.97 2.12 76.11 3.2 76.12 L 49.06 76.12 C 50.14 76.11 51.02 76.97 51.08 78.07 L 51.13 89.87 C 51.13 90.43 50.91 90.96 50.52 91.35 C 50.13 91.73 49.61 91.94 49.06 91.93 L 3.2 91.93 C 2.66 91.93 2.15 91.71 1.77 91.33 C 1.39 90.94 1.18 90.42 1.18 89.87 Z M 7.22 88.18 C 7.22 87.19 6.43 86.38 5.46 86.38 C 4.49 86.38 3.7 87.19 3.7 88.18 C 3.7 89.17 4.49 89.98 5.46 89.98 C 6.43 89.98 7.22 89.17 7.22 88.18 Z M 37.43 88.03 C 37.13 88.03 36.88 88.28 36.88 88.59 C 36.88 88.9 37.13 89.16 37.43 89.16 L 47.5 89.16 C 47.81 89.16 48.06 88.9 48.06 88.59 C 48.06 88.28 47.81 88.03 47.5 88.03 Z M 37.43 86.08 C 37.13 86.08 36.88 86.33 36.88 86.64 C 36.88 86.95 37.13 87.2 37.43 87.2 L 47.5 87.2 C 47.81 87.2 48.06 86.95 48.06 86.64 C 48.06 86.33 47.81 86.08 47.5 86.08 Z M 37.43 84.07 C 37.13 84.07 36.88 84.33 36.88 84.64 C 36.88 84.95 37.13 85.2 37.43 85.2 L 47.5 85.2 C 47.81 85.2 48.06 84.95 48.06 84.64 C 48.06 84.33 47.81 84.07 47.5 84.07 Z" fill="#f1bf57" stroke="none" pointer-events="none"/><path d="M 26.06 92.08 L 26.06 142.08" fill="none" stroke="#f15f57" stroke-width="3" stroke-miterlimit="10" pointer-events="none"/><path d="M 1.18 151.01 C 1.24 149.92 2.12 149.06 3.2 149.06 L 49.06 149.06 C 50.14 149.06 51.02 149.92 51.08 151.01 L 51.13 162.82 C 51.13 163.37 50.91 163.9 50.52 164.29 C 50.13 164.68 49.61 164.89 49.06 164.87 L 3.2 164.87 C 2.66 164.87 2.15 164.66 1.77 164.27 C 1.39 163.89 1.18 163.36 1.18 162.82 Z M 7.22 161.13 C 7.22 160.13 6.43 159.33 5.46 159.33 C 4.49 159.33 3.7 160.13 3.7 161.13 C 3.7 162.12 4.49 162.92 5.46 162.92 C 6.43 162.92 7.22 162.12 7.22 161.13 Z M 37.43 160.97 C 37.13 160.97 36.88 161.22 36.88 161.54 C 36.88 161.85 37.13 162.1 37.43 162.1 L 47.5 162.1 C 47.81 162.1 48.06 161.85 48.06 161.54 C 48.06 161.22 47.81 160.97 47.5 160.97 Z M 37.43 159.02 C 37.13 159.02 36.88 159.27 36.88 159.59 C 36.88 159.9 37.13 160.15 37.43 160.15 L 47.5 160.15 C 47.81 160.15 48.06 159.9 48.06 159.59 C 48.06 159.27 47.81 159.02 47.5 159.02 Z M 37.43 157.02 C 37.13 157.02 36.88 157.27 36.88 157.58 C 36.88 157.89 37.13 158.15 37.43 158.15 L 47.5 158.15 C 47.81 158.15 48.06 157.89 48.06 157.58 C 48.06 157.27 47.81 157.02 47.5 157.02 Z M 1.13 133.89 C 1.18 132.8 2.07 131.94 3.14 131.94 L 49.01 131.94 C 50.08 131.94 50.97 132.8 51.02 133.89 L 51.07 145.7 C 51.07 146.26 50.85 146.79 50.46 147.17 C 50.08 147.56 49.55 147.77 49.01 147.76 L 3.14 147.76 C 2.61 147.76 2.09 147.54 1.72 147.15 C 1.34 146.77 1.13 146.25 1.13 145.7 Z M 7.17 144.01 C 7.17 143.02 6.38 142.21 5.41 142.21 C 4.43 142.21 3.64 143.02 3.64 144.01 C 3.64 145 4.43 145.81 5.41 145.81 C 6.38 145.81 7.17 145 7.17 144.01 Z M 37.38 143.85 C 37.07 143.85 36.82 144.11 36.82 144.42 C 36.82 144.73 37.07 144.98 37.38 144.98 L 47.45 144.98 C 47.75 144.98 48 144.73 48 144.42 C 48 144.11 47.75 143.85 47.45 143.85 Z M 37.38 141.9 C 37.07 141.9 36.82 142.16 36.82 142.47 C 36.82 142.78 37.07 143.03 37.38 143.03 L 47.45 143.03 C 47.75 143.03 48 142.78 48 142.47 C 48 142.16 47.75 141.9 47.45 141.9 Z M 37.38 139.9 C 37.07 139.9 36.82 140.15 36.82 140.47 C 36.82 140.78 37.07 141.03 37.38 141.03 L 47.45 141.03 C 47.75 141.03 48 140.78 48 140.47 C 48 140.15 47.75 139.9 47.45 139.9 Z M 1.18 168.07 C 1.24 166.97 2.12 166.11 3.2 166.12 L 49.06 166.12 C 50.14 166.11 51.02 166.97 51.08 168.07 L 51.13 179.87 C 51.13 180.43 50.91 180.96 50.52 181.35 C 50.13 181.73 49.61 181.94 49.06 181.93 L 3.2 181.93 C 2.66 181.93 2.15 181.71 1.77 181.33 C 1.39 180.94 1.18 180.42 1.18 179.87 Z M 7.22 178.18 C 7.22 177.19 6.43 176.38 5.46 176.38 C 4.49 176.38 3.7 177.19 3.7 178.18 C 3.7 179.17 4.49 179.98 5.46 179.98 C 6.43 179.98 7.22 179.17 7.22 178.18 Z M 37.43 178.03 C 37.13 178.03 36.88 178.28 36.88 178.59 C 36.88 178.9 37.13 179.16 37.43 179.16 L 47.5 179.16 C 47.81 179.16 48.06 178.9 48.06 178.59 C 48.06 178.28 47.81 178.03 47.5 178.03 Z M 37.43 176.08 C 37.13 176.08 36.88 176.33 36.88 176.64 C 36.88 176.95 37.13 177.2 37.43 177.2 L 47.5 177.2 C 47.81 177.2 48.06 176.95 48.06 176.64 C 48.06 176.33 47.81 176.08 47.5 176.08 Z M 37.43 174.07 C 37.13 174.07 36.88 174.33 36.88 174.64 C 36.88 174.95 37.13 175.2 37.43 175.2 L 47.5 175.2 C 47.81 175.2 48.06 174.95 48.06 174.64 C 48.06 174.33 47.81 174.07 47.5 174.07 Z" fill="#f1bf57" stroke="none" pointer-events="none"/><path d="M 101.18 61.01 C 101.24 59.92 102.12 59.06 103.2 59.06 L 149.06 59.06 C 150.14 59.06 151.02 59.92 151.08 61.01 L 151.13 72.82 C 151.13 73.37 150.91 73.9 150.52 74.29 C 150.13 74.68 149.61 74.89 149.06 74.87 L 103.2 74.87 C 102.66 74.87 102.15 74.66 101.77 74.27 C 101.39 73.89 101.18 73.36 101.18 72.82 Z M 107.22 71.13 C 107.22 70.13 106.43 69.33 105.46 69.33 C 104.49 69.33 103.7 70.13 103.7 71.13 C 103.7 72.12 104.49 72.92 105.46 72.92 C 106.43 72.92 107.22 72.12 107.22 71.13 Z M 137.43 70.97 C 137.13 70.97 136.88 71.22 136.88 71.54 C 136.88 71.85 137.13 72.1 137.43 72.1 L 147.5 72.1 C 147.81 72.1 148.06 71.85 148.06 71.54 C 148.06 71.22 147.81 70.97 147.5 70.97 Z M 137.43 69.02 C 137.13 69.02 136.88 69.27 136.88 69.59 C 136.88 69.9 137.13 70.15 137.43 70.15 L 147.5 70.15 C 147.81 70.15 148.06 69.9 148.06 69.59 C 148.06 69.27 147.81 69.02 147.5 69.02 Z M 137.43 67.02 C 137.13 67.02 136.88 67.27 136.88 67.58 C 136.88 67.89 137.13 68.15 137.43 68.15 L 147.5 68.15 C 147.81 68.15 148.06 67.89 148.06 67.58 C 148.06 67.27 147.81 67.02 147.5 67.02 Z M 101.13 43.89 C 101.18 42.8 102.07 41.94 103.14 41.94 L 149.01 41.94 C 150.08 41.94 150.97 42.8 151.02 43.89 L 151.07 55.7 C 151.07 56.26 150.85 56.79 150.46 57.17 C 150.08 57.56 149.55 57.77 149.01 57.76 L 103.14 57.76 C 102.03 57.76 101.13 56.84 101.13 55.7 Z M 107.17 54.01 C 107.17 53.37 106.83 52.77 106.29 52.45 C 105.74 52.13 105.07 52.13 104.53 52.45 C 103.98 52.77 103.64 53.37 103.64 54.01 C 103.64 54.65 103.98 55.24 104.53 55.56 C 105.07 55.89 105.74 55.89 106.29 55.56 C 106.83 55.24 107.17 54.65 107.17 54.01 Z M 137.38 53.85 C 137.07 53.85 136.82 54.11 136.82 54.42 C 136.82 54.73 137.07 54.98 137.38 54.98 L 147.45 54.98 C 147.75 54.98 148 54.73 148 54.42 C 148 54.11 147.75 53.85 147.45 53.85 Z M 137.38 51.9 C 137.07 51.9 136.82 52.16 136.82 52.47 C 136.82 52.78 137.07 53.03 137.38 53.03 L 147.45 53.03 C 147.75 53.03 148 52.78 148 52.47 C 148 52.16 147.75 51.9 147.45 51.9 Z M 137.38 49.9 C 137.07 49.9 136.82 50.15 136.82 50.47 C 136.82 50.78 137.07 51.03 137.38 51.03 L 147.45 51.03 C 147.75 51.03 148 50.78 148 50.47 C 148 50.15 147.75 49.9 147.45 49.9 Z M 101.18 78.07 C 101.24 76.97 102.12 76.11 103.2 76.12 L 149.06 76.12 C 150.14 76.11 151.02 76.97 151.08 78.07 L 151.13 89.87 C 151.13 90.43 150.91 90.96 150.52 91.35 C 150.13 91.73 149.61 91.94 149.06 91.93 L 103.2 91.93 C 102.66 91.93 102.15 91.71 101.77 91.33 C 101.39 90.94 101.18 90.42 101.18 89.87 Z M 107.22 88.18 C 107.22 87.19 106.43 86.38 105.46 86.38 C 104.49 86.38 103.7 87.19 103.7 88.18 C 103.7 89.17 104.49 89.98 105.46 89.98 C 106.43 89.98 107.22 89.17 107.22 88.18 Z M 137.43 88.03 C 137.13 88.03 136.88 88.28 136.88 88.59 C 136.88 88.9 137.13 89.16 137.43 89.16 L 147.5 89.16 C 147.81 89.16 148.06 88.9 148.06 88.59 C 148.06 88.28 147.81 88.03 147.5 88.03 Z M 137.43 86.08 C 137.13 86.08 136.88 86.33 136.88 86.64 C 136.88 86.95 137.13 87.2 137.43 87.2 L 147.5 87.2 C 147.81 87.2 148.06 86.95 148.06 86.64 C 148.06 86.33 147.81 86.08 147.5 86.08 Z M 137.43 84.07 C 137.13 84.07 136.88 84.33 136.88 84.64 C 136.88 84.95 137.13 85.2 137.43 85.2 L 147.5 85.2 C 147.81 85.2 148.06 84.95 148.06 84.64 C 148.06 84.33 147.81 84.07 147.5 84.07 Z" fill="#f1bf57" stroke="none" pointer-events="none"/><path d="M 126.06 92.08 L 126.06 142.08" fill="none" stroke="#f15f57" stroke-width="3" stroke-miterlimit="10" pointer-events="none"/><path d="M 101.18 151.01 C 101.24 149.92 102.12 149.06 103.2 149.06 L 149.06 149.06 C 150.14 149.06 151.02 149.92 151.08 151.01 L 151.13 162.82 C 151.13 163.37 150.91 163.9 150.52 164.29 C 150.13 164.68 149.61 164.89 149.06 164.87 L 103.2 164.87 C 102.66 164.87 102.15 164.66 101.77 164.27 C 101.39 163.89 101.18 163.36 101.18 162.82 Z M 107.22 161.13 C 107.22 160.13 106.43 159.33 105.46 159.33 C 104.49 159.33 103.7 160.13 103.7 161.13 C 103.7 162.12 104.49 162.92 105.46 162.92 C 106.43 162.92 107.22 162.12 107.22 161.13 Z M 137.43 160.97 C 137.13 160.97 136.88 161.22 136.88 161.54 C 136.88 161.85 137.13 162.1 137.43 162.1 L 147.5 162.1 C 147.81 162.1 148.06 161.85 148.06 161.54 C 148.06 161.22 147.81 160.97 147.5 160.97 Z M 137.43 159.02 C 137.13 159.02 136.88 159.27 136.88 159.59 C 136.88 159.9 137.13 160.15 137.43 160.15 L 147.5 160.15 C 147.81 160.15 148.06 159.9 148.06 159.59 C 148.06 159.27 147.81 159.02 147.5 159.02 Z M 137.43 157.02 C 137.13 157.02 136.88 157.27 136.88 157.58 C 136.88 157.89 137.13 158.15 137.43 158.15 L 147.5 158.15 C 147.81 158.15 148.06 157.89 148.06 157.58 C 148.06 157.27 147.81 157.02 147.5 157.02 Z M 101.13 133.89 C 101.18 132.8 102.07 131.94 103.14 131.94 L 149.01 131.94 C 150.08 131.94 150.97 132.8 151.02 133.89 L 151.07 145.7 C 151.07 146.26 150.85 146.79 150.46 147.17 C 150.08 147.56 149.55 147.77 149.01 147.76 L 103.14 147.76 C 102.03 147.76 101.13 146.84 101.13 145.7 Z M 107.17 144.01 C 107.17 143.37 106.83 142.77 106.29 142.45 C 105.74 142.13 105.07 142.13 104.53 142.45 C 103.98 142.77 103.64 143.37 103.64 144.01 C 103.64 144.65 103.98 145.24 104.53 145.56 C 105.07 145.89 105.74 145.89 106.29 145.56 C 106.83 145.24 107.17 144.65 107.17 144.01 Z M 137.38 143.85 C 137.07 143.85 136.82 144.11 136.82 144.42 C 136.82 144.73 137.07 144.98 137.38 144.98 L 147.45 144.98 C 147.75 144.98 148 144.73 148 144.42 C 148 144.11 147.75 143.85 147.45 143.85 Z M 137.38 141.9 C 137.07 141.9 136.82 142.16 136.82 142.47 C 136.82 142.78 137.07 143.03 137.38 143.03 L 147.45 143.03 C 147.75 143.03 148 142.78 148 142.47 C 148 142.16 147.75 141.9 147.45 141.9 Z M 137.38 139.9 C 137.07 139.9 136.82 140.15 136.82 140.47 C 136.82 140.78 137.07 141.03 137.38 141.03 L 147.45 141.03 C 147.75 141.03 148 140.78 148 140.47 C 148 140.15 147.75 139.9 147.45 139.9 Z M 101.18 168.07 C 101.24 166.97 102.12 166.11 103.2 166.12 L 149.06 166.12 C 150.14 166.11 151.02 166.97 151.08 168.07 L 151.13 179.87 C 151.13 180.43 150.91 180.96 150.52 181.35 C 150.13 181.73 149.61 181.94 149.06 181.93 L 103.2 181.93 C 102.66 181.93 102.15 181.71 101.77 181.33 C 101.39 180.94 101.18 180.42 101.18 179.87 Z M 107.22 178.18 C 107.22 177.19 106.43 176.38 105.46 176.38 C 104.49 176.38 103.7 177.19 103.7 178.18 C 103.7 179.17 104.49 179.98 105.46 179.98 C 106.43 179.98 107.22 179.17 107.22 178.18 Z M 137.43 178.03 C 137.13 178.03 136.88 178.28 136.88 178.59 C 136.88 178.9 137.13 179.16 137.43 179.16 L 147.5 179.16 C 147.81 179.16 148.06 178.9 148.06 178.59 C 148.06 178.28 147.81 178.03 147.5 178.03 Z M 137.43 176.08 C 137.13 176.08 136.88 176.33 136.88 176.64 C 136.88 176.95 137.13 177.2 137.43 177.2 L 147.5 177.2 C 147.81 177.2 148.06 176.95 148.06 176.64 C 148.06 176.33 147.81 176.08 147.5 176.08 Z M 137.43 174.07 C 137.13 174.07 136.88 174.33 136.88 174.64 C 136.88 174.95 137.13 175.2 137.43 175.2 L 147.5 175.2 C 147.81 175.2 148.06 174.95 148.06 174.64 C 148.06 174.33 147.81 174.07 147.5 174.07 Z" fill="#f1bf57" stroke="none" pointer-events="none"/><path d="M 51.13 156.94 L 101.13 156.94" fill="none" stroke="#f15f57" stroke-width="3" stroke-miterlimit="10" pointer-events="none"/><path d="M 151.41 66.73 L 191.13 66.94" fill="none" stroke="#f15f57" stroke-width="3" stroke-miterlimit="10" pointer-events="none"/><path d="M 151.41 156.73 L 191.13 156.94" fill="none" stroke="#f15f57" stroke-width="3" stroke-miterlimit="10" pointer-events="none"/><path d="M 26.13 1.94 L 26.06 42.08" fill="none" stroke="#f15f57" stroke-width="3" stroke-miterlimit="10" pointer-events="none"/><path d="M 126.13 1.94 L 126.06 42.08" fill="none" stroke="#f15f57" stroke-width="3" stroke-miterlimit="10" pointer-events="none"/></g></svg>