<?xml version="1.0" encoding="UTF-8"?>
<!DOCTYPE svg PUBLIC "-//W3C//DTD SVG 1.1//EN" "http://www.w3.org/Graphics/SVG/1.1/DTD/svg11.dtd">
<svg xmlns="http://www.w3.org/2000/svg" xmlns:xlink="http://www.w3.org/1999/xlink" width="598px" height="405px" version="1.1"><defs/><g transform="translate(0.5,0.5)"><rect x="472" y="2" width="110" height="400" rx="16.5" ry="16.5" fill="none" stroke="#74b9c0" stroke-width="3" stroke-dasharray="9 9" pointer-events="none"/><rect x="2" y="22" width="593" height="360" rx="54" ry="54" fill="none" stroke="#f15f57" stroke-width="3" pointer-events="none"/><path d="M 32 248.17 L 32 155.35 C 32.95 148.55 38.12 143.15 44.8 142 L 122.43 142 L 146 165.66 L 146 248.17 C 145.17 255.39 139.59 261.1 132.48 262 L 45.16 262 C 38.19 260.95 32.79 255.27 32 248.17 Z M 61.91 228.39 L 114.78 228.39 L 114.78 218.32 L 61.91 218.32 Z M 114.78 209.22 L 114.78 199.39 L 61.91 199.39 L 61.91 209.22 Z M 61.91 190.29 L 114.78 190.29 L 114.78 180.58 L 61.91 180.58 Z M 117.29 171.48 L 136.67 171.48 L 117.29 151.1 Z" fill="#f1bf57" stroke="none" pointer-events="none"/><path d="M 162 172 L 312.74 106.05" fill="none" stroke="#f15f57" stroke-width="3" stroke-miterlimit="10" pointer-events="none"/><path d="M 318.93 103.34 L 312.49 111.07 L 312.74 106.05 L 308.88 102.83 Z" fill="#f15f57" stroke="#f15f57" stroke-width="3" stroke-miterlimit="10" pointer-events="none"/><path d="M 162 202 L 311.9 202" fill="none" stroke="#f15f57" stroke-width="3" stroke-miterlimit="10" pointer-events="none"/><path d="M 318.65 202 L 309.65 206.5 L 311.9 202 L 309.65 197.5 Z" fill="#f15f57" stroke="#f15f57" stroke-width="3" stroke-miterlimit="10" pointer-events="none"/><path d="M 162 232 L 302.84 297.73" fill="none" stroke="#f15f57" stroke-width="3" stroke-miterlimit="10" pointer-events="none"/><path d="M 308.96 300.58 L 298.9 300.85 L 302.84 297.73 L 302.71 292.7 Z" fill="#f15f57" stroke="#f15f57" stroke-width="3" stroke-miterlimit="10" pointer-events="none"/><path d="M 342 67.76 C 342.35 64.72 344.73 62.33 347.73 62 L 379.64 62 L 389.5 71.95 L 389.5 105.79 C 389.33 109.12 386.73 111.79 383.45 112 L 347.73 112 C 344.77 111.68 342.41 109.37 342 106.38 Z M 345.88 105.48 C 345.88 106.69 346.72 107.72 347.88 107.96 L 383.53 107.96 C 384.66 107.7 385.47 106.67 385.47 105.48 L 385.47 74.27 L 377.5 74.27 L 377.5 66.09 L 347.88 66.09 C 346.81 66.36 346.04 67.3 345.98 68.41 Z M 354.45 78.01 L 376.45 78.01 L 376.45 82.15 L 354.45 82.15 Z M 354.45 85.89 L 376.45 85.89 L 376.45 90.03 L 354.45 90.03 Z M 354.45 93.77 L 376.45 93.77 L 376.45 97.96 L 354.45 97.96 Z" fill="#f1bf57" stroke="none" pointer-events="none"/><path d="M 342 182.76 C 342.35 179.72 344.73 177.33 347.73 177 L 379.64 177 L 389.5 186.95 L 389.5 220.79 C 389.33 224.12 386.73 226.79 383.45 227 L 347.73 227 C 344.77 226.68 342.41 224.37 342 221.38 Z M 345.88 220.48 C 345.88 221.69 346.72 222.72 347.88 222.96 L 383.53 222.96 C 384.66 222.7 385.47 221.67 385.47 220.48 L 385.47 189.27 L 377.5 189.27 L 377.5 181.09 L 347.88 181.09 C 346.81 181.36 346.04 182.3 345.98 183.41 Z M 354.45 193.01 L 376.45 193.01 L 376.45 197.15 L 354.45 197.15 Z M 354.45 200.89 L 376.45 200.89 L 376.45 205.03 L 354.45 205.03 Z M 354.45 208.77 L 376.45 208.77 L 376.45 212.96 L 354.45 212.96 Z" fill="#f1bf57" stroke="none" pointer-events="none"/><path d="M 342 297.76 C 342.35 294.72 344.73 292.33 347.73 292 L 379.64 292 L 389.5 301.95 L 389.5 335.79 C 389.33 339.12 386.73 341.79 383.45 342 L 347.73 342 C 344.77 341.68 342.41 339.37 342 336.38 Z M 345.88 335.48 C 345.88 336.69 346.72 337.72 347.88 337.96 L 383.53 337.96 C 384.66 337.7 385.47 336.67 385.47 335.48 L 385.47 304.27 L 377.5 304.27 L 377.5 296.09 L 347.88 296.09 C 346.81 296.36 346.04 297.3 345.98 298.41 Z M 354.45 308.01 L 376.45 308.01 L 376.45 312.15 L 354.45 312.15 Z M 354.45 315.89 L 376.45 315.89 L 376.45 320.03 L 354.45 320.03 Z M 354.45 323.77 L 376.45 323.77 L 376.45 327.96 L 354.45 327.96 Z" fill="#f1bf57" stroke="none" pointer-events="none"/><path d="M 395 87 L 484.9 87" fill="none" stroke="#f15f57" stroke-width="3" stroke-miterlimit="10" pointer-events="none"/><path d="M 491.65 87 L 482.65 91.5 L 484.9 87 L 482.65 82.5 Z" fill="#f15f57" stroke="#f15f57" stroke-width="3" stroke-miterlimit="10" pointer-events="none"/><path d="M 395 201 L 484.9 201" fill="none" stroke="#f15f57" stroke-width="3" stroke-miterlimit="10" pointer-events="none"/><path d="M 491.65 201 L 482.65 205.5 L 484.9 201 L 482.65 196.5 Z" fill="#f15f57" stroke="#f15f57" stroke-width="3" stroke-miterlimit="10" pointer-events="none"/><path d="M 395 317 L 484.9 317" fill="none" stroke="#f15f57" stroke-width="3" stroke-miterlimit="10" pointer-events="none"/><path d="M 491.65 317 L 482.65 321.5 L 484.9 317 L 482.65 312.5 Z" fill="#f15f57" stroke="#f15f57" stroke-width="3" stroke-miterlimit="10" pointer-events="none"/><path d="M 505 67.76 C 505.35 64.72 507.73 62.33 510.73 62 L 542.64 62 L 552.5 71.95 L 552.5 105.79 C 552.33 109.12 549.73 111.79 546.45 112 L 510.73 112 C 507.77 111.68 505.41 109.37 505 106.38 Z M 508.88 105.48 C 508.88 106.69 509.72 107.72 510.88 107.96 L 546.53 107.96 C 547.66 107.7 548.47 106.67 548.47 105.48 L 548.47 74.27 L 540.5 74.27 L 540.5 66.09 L 510.88 66.09 C 509.81 66.36 509.04 67.3 508.98 68.41 Z M 517.45 78.01 L 539.45 78.01 L 539.45 82.15 L 517.45 82.15 Z M 517.45 85.89 L 539.45 85.89 L 539.45 90.03 L 517.45 90.03 Z M 517.45 93.77 L 539.45 93.77 L 539.45 97.96 L 517.45 97.96 Z" fill="#74b9c0" stroke="none" pointer-events="none"/><path d="M 505 182.76 C 505.35 179.72 507.73 177.33 510.73 177 L 542.64 177 L 552.5 186.95 L 552.5 220.79 C 552.33 224.12 549.73 226.79 546.45 227 L 510.73 227 C 507.77 226.68 505.41 224.37 505 221.38 Z M 508.88 220.48 C 508.88 221.69 509.72 222.72 510.88 222.96 L 546.53 222.96 C 547.66 222.7 548.47 221.67 548.47 220.48 L 548.47 189.27 L 540.5 189.27 L 540.5 181.09 L 510.88 181.09 C 509.81 181.36 509.04 182.3 508.98 183.41 Z M 517.45 193.01 L 539.45 193.01 L 539.45 197.15 L 517.45 197.15 Z M 517.45 200.89 L 539.45 200.89 L 539.45 205.03 L 517.45 205.03 Z M 517.45 208.77 L 539.45 208.77 L 539.45 212.96 L 517.45 212.96 Z" fill="#74b9c0" stroke="none" pointer-events="none"/><path d="M 505 297.76 C 505.35 294.72 507.73 292.33 510.73 292 L 542.64 292 L 552.5 301.95 L 552.5 335.79 C 552.33 339.12 549.73 341.79 546.45 342 L 510.73 342 C 507.77 341.68 505.41 339.37 505 336.38 Z M 508.88 335.48 C 508.88 336.69 509.72 337.72 510.88 337.96 L 546.53 337.96 C 547.66 337.7 548.47 336.67 548.47 335.48 L 548.47 304.27 L 540.5 304.27 L 540.5 296.09 L 510.88 296.09 C 509.81 296.36 509.04 297.3 508.98 298.41 Z M 517.45 308.01 L 539.45 308.01 L 539.45 312.15 L 517.45 312.15 Z M 517.45 315.89 L 539.45 315.89 L 539.45 320.03 L 517.45 320.03 Z M 517.45 323.77 L 539.45 323.77 L 539.45 327.96 L 517.45 327.96 Z" fill="#74b9c0" stroke="none" pointer-events="none"/></g></svg>