<?xml version="1.0" encoding="UTF-8"?>
<!DOCTYPE svg PUBLIC "-//W3C//DTD SVG 1.1//EN" "http://www.w3.org/Graphics/SVG/1.1/DTD/svg11.dtd">
<svg xmlns="http://www.w3.org/2000/svg" xmlns:xlink="http://www.w3.org/1999/xlink" width="685px" height="535px" version="1.1"><defs/><g transform="translate(0.5,0.5)"><path d="M 284.13 107.11 L 284.13 14.29 C 285.07 7.49 290.25 2.09 296.93 0.94 L 374.56 0.94 L 398.13 24.6 L 398.13 107.11 C 397.3 114.33 391.72 120.04 384.61 120.94 L 297.29 120.94 C 290.32 119.89 284.92 114.21 284.13 107.11 Z M 314.03 87.33 L 366.91 87.33 L 366.91 77.26 L 314.03 77.26 Z M 366.91 68.16 L 366.91 58.33 L 314.03 58.33 L 314.03 68.16 Z M 314.03 49.23 L 366.91 49.23 L 366.91 39.53 L 314.03 39.53 Z M 369.42 30.43 L 388.8 30.43 L 369.42 10.04 Z" fill="#f1bf57" stroke="none" pointer-events="none"/><path d="M 284.13 130.94 L 243.65 211.91" fill="none" stroke="#f15f57" stroke-width="3" stroke-miterlimit="10" pointer-events="none"/><path d="M 240.63 217.94 L 240.63 207.88 L 243.65 211.91 L 248.68 211.91 Z" fill="#f15f57" stroke="#f15f57" stroke-width="3" stroke-miterlimit="10" pointer-events="none"/><path d="M 195.13 246.7 C 195.48 243.66 197.85 241.28 200.85 240.94 L 232.77 240.94 L 242.63 250.89 L 242.63 284.73 C 242.46 288.06 239.86 290.73 236.58 290.94 L 200.85 290.94 C 197.9 290.63 195.54 288.31 195.13 285.33 Z M 199.01 284.43 C 199.01 285.63 199.84 286.66 201 286.9 L 236.65 286.9 C 237.79 286.64 238.6 285.61 238.59 284.43 L 238.59 253.22 L 230.63 253.22 L 230.63 245.03 L 201 245.03 C 199.94 245.3 199.17 246.24 199.11 247.36 Z M 207.57 256.95 L 229.58 256.95 L 229.58 261.1 L 207.57 261.1 Z M 207.57 264.83 L 229.58 264.83 L 229.58 268.97 L 207.57 268.97 Z M 207.57 272.71 L 229.58 272.71 L 229.58 276.9 L 207.57 276.9 Z" fill="#f15f57" stroke="none" pointer-events="none"/><path d="M 435.13 246.7 C 435.48 243.66 437.85 241.28 440.85 240.94 L 472.77 240.94 L 482.63 250.89 L 482.63 284.73 C 482.46 288.06 479.86 290.73 476.58 290.94 L 440.85 290.94 C 437.9 290.63 435.54 288.31 435.13 285.33 Z M 439.01 284.43 C 439.01 285.63 439.84 286.66 441 286.9 L 476.65 286.9 C 477.79 286.64 478.6 285.61 478.59 284.43 L 478.59 253.22 L 470.63 253.22 L 470.63 245.03 L 441 245.03 C 439.94 245.3 439.17 246.24 439.11 247.36 Z M 447.57 256.95 L 469.58 256.95 L 469.58 261.1 L 447.57 261.1 Z M 447.57 264.83 L 469.58 264.83 L 469.58 268.97 L 447.57 268.97 Z M 447.57 272.71 L 469.58 272.71 L 469.58 276.9 L 447.57 276.9 Z" fill="#74b9c0" stroke="none" pointer-events="none"/><path d="M 443.13 130.94 L 402.65 211.91" fill="none" stroke="#f15f57" stroke-width="3" stroke-miterlimit="10" transform="translate(420.98,0)scale(-1,1)translate(-420.98,0)" pointer-events="none"/><path d="M 399.63 217.94 L 399.63 207.88 L 402.65 211.91 L 407.68 211.91 Z" fill="#f15f57" stroke="#f15f57" stroke-width="3" stroke-miterlimit="10" transform="translate(420.98,0)scale(-1,1)translate(-420.98,0)" pointer-events="none"/><rect x="274.13" y="380.94" width="130" height="150" rx="19.5" ry="19.5" fill="none" stroke="#f15f57" stroke-width="3" pointer-events="none"/><path d="M 291.13 404.64 C 291.23 402.57 293.01 400.94 295.16 400.94 L 386.99 400.94 C 389.14 400.94 390.92 402.57 391.03 404.64 L 391.13 427.02 C 391.13 428.07 390.69 429.08 389.91 429.81 C 389.13 430.54 388.08 430.94 386.99 430.91 L 295.16 430.91 C 292.93 430.91 291.13 429.17 291.13 427.02 Z M 303.22 423.81 C 303.22 422.59 302.55 421.47 301.46 420.86 C 300.37 420.25 299.02 420.25 297.93 420.86 C 296.84 421.47 296.17 422.59 296.17 423.81 C 296.17 425.03 296.84 426.15 297.93 426.76 C 299.02 427.37 300.37 427.37 301.46 426.76 C 302.55 426.15 303.22 425.03 303.22 423.81 Z M 363.71 423.52 C 363.09 423.52 362.6 424 362.6 424.59 C 362.6 425.18 363.09 425.66 363.71 425.66 L 383.87 425.66 C 384.48 425.66 384.98 425.18 384.98 424.59 C 384.98 424 384.48 423.52 383.87 423.52 Z M 363.71 419.82 C 363.09 419.82 362.6 420.3 362.6 420.89 C 362.6 421.48 363.09 421.96 363.71 421.96 L 383.87 421.96 C 384.48 421.96 384.98 421.48 384.98 420.89 C 384.98 420.3 384.48 419.82 383.87 419.82 Z M 363.71 416.03 C 363.09 416.03 362.6 416.51 362.6 417.1 C 362.6 417.69 363.09 418.17 363.71 418.17 L 383.87 418.17 C 384.48 418.17 384.98 417.69 384.98 417.1 C 384.98 416.51 384.48 416.03 383.87 416.03 Z" fill="#f1bf57" stroke="none" pointer-events="none"/><path d="M 291.13 461.7 C 291.48 458.66 293.85 456.28 296.85 455.94 L 328.77 455.94 L 338.63 465.89 L 338.63 499.73 C 338.46 503.06 335.86 505.73 332.58 505.94 L 296.85 505.94 C 293.9 505.63 291.54 503.31 291.13 500.33 Z M 295.01 499.43 C 295.01 500.63 295.84 501.66 297 501.9 L 332.65 501.9 C 333.79 501.64 334.6 500.61 334.59 499.43 L 334.59 468.22 L 326.63 468.22 L 326.63 460.03 L 297 460.03 C 295.94 460.3 295.17 461.24 295.11 462.36 Z M 303.57 471.95 L 325.58 471.95 L 325.58 476.1 L 303.57 476.1 Z M 303.57 479.83 L 325.58 479.83 L 325.58 483.97 L 303.57 483.97 Z M 303.57 487.71 L 325.58 487.71 L 325.58 491.9 L 303.57 491.9 Z" fill="#f15f57" stroke="none" pointer-events="none"/><path d="M 344.13 461.7 C 344.48 458.66 346.85 456.28 349.85 455.94 L 381.77 455.94 L 391.63 465.89 L 391.63 499.73 C 391.46 503.06 388.86 505.73 385.58 505.94 L 349.85 505.94 C 346.9 505.63 344.54 503.31 344.13 500.33 Z M 348.01 499.43 C 348.01 500.63 348.84 501.66 350 501.9 L 385.65 501.9 C 386.79 501.64 387.6 500.61 387.59 499.43 L 387.59 468.22 L 379.63 468.22 L 379.63 460.03 L 350 460.03 C 348.94 460.3 348.17 461.24 348.11 462.36 Z M 356.57 471.95 L 378.58 471.95 L 378.58 476.1 L 356.57 476.1 Z M 356.57 479.83 L 378.58 479.83 L 378.58 483.97 L 356.57 483.97 Z M 356.57 487.71 L 378.58 487.71 L 378.58 491.9 L 356.57 491.9 Z" fill="#74b9c0" stroke="none" pointer-events="none"/><rect x="552.13" y="380.94" width="130" height="150" rx="19.5" ry="19.5" fill="none" stroke="#f15f57" stroke-width="3" pointer-events="none"/><path d="M 569.13 404.64 C 569.23 402.57 571.01 400.94 573.16 400.94 L 664.99 400.94 C 667.14 400.94 668.92 402.57 669.03 404.64 L 669.13 427.02 C 669.13 428.07 668.69 429.08 667.91 429.81 C 667.13 430.54 666.08 430.94 664.99 430.91 L 573.16 430.91 C 570.93 430.91 569.13 429.17 569.13 427.02 Z M 581.22 423.81 C 581.22 422.59 580.55 421.47 579.46 420.86 C 578.37 420.25 577.02 420.25 575.93 420.86 C 574.84 421.47 574.17 422.59 574.17 423.81 C 574.17 425.03 574.84 426.15 575.93 426.76 C 577.02 427.37 578.37 427.37 579.46 426.76 C 580.55 426.15 581.22 425.03 581.22 423.81 Z M 641.71 423.52 C 641.09 423.52 640.6 424 640.6 424.59 C 640.6 425.18 641.09 425.66 641.71 425.66 L 661.87 425.66 C 662.48 425.66 662.98 425.18 662.98 424.59 C 662.98 424 662.48 423.52 661.87 423.52 Z M 641.71 419.82 C 641.09 419.82 640.6 420.3 640.6 420.89 C 640.6 421.48 641.09 421.96 641.71 421.96 L 661.87 421.96 C 662.48 421.96 662.98 421.48 662.98 420.89 C 662.98 420.3 662.48 419.82 661.87 419.82 Z M 641.71 416.03 C 641.09 416.03 640.6 416.51 640.6 417.1 C 640.6 417.69 641.09 418.17 641.71 418.17 L 661.87 418.17 C 662.48 418.17 662.98 417.69 662.98 417.1 C 662.98 416.51 662.48 416.03 661.87 416.03 Z" fill="#f1bf57" stroke="none" pointer-events="none"/><path d="M 569.13 461.7 C 569.48 458.66 571.85 456.28 574.85 455.94 L 606.77 455.94 L 616.63 465.89 L 616.63 499.73 C 616.46 503.06 613.86 505.73 610.58 505.94 L 574.85 505.94 C 571.9 505.63 569.54 503.31 569.13 500.33 Z M 573.01 499.43 C 573.01 500.63 573.84 501.66 575 501.9 L 610.65 501.9 C 611.79 501.64 612.6 500.61 612.59 499.43 L 612.59 468.22 L 604.63 468.22 L 604.63 460.03 L 575 460.03 C 573.94 460.3 573.17 461.24 573.11 462.36 Z M 581.57 471.95 L 603.58 471.95 L 603.58 476.1 L 581.57 476.1 Z M 581.57 479.83 L 603.58 479.83 L 603.58 483.97 L 581.57 483.97 Z M 581.57 487.71 L 603.58 487.71 L 603.58 491.9 L 581.57 491.9 Z" fill="#f15f57" stroke="none" pointer-events="none"/><path d="M 622.13 461.7 C 622.48 458.66 624.85 456.28 627.85 455.94 L 659.77 455.94 L 669.63 465.89 L 669.63 499.73 C 669.46 503.06 666.86 505.73 663.58 505.94 L 627.85 505.94 C 624.9 505.63 622.54 503.31 622.13 500.33 Z M 626.01 499.43 C 626.01 500.63 626.84 501.66 628 501.9 L 663.65 501.9 C 664.79 501.64 665.6 500.61 665.59 499.43 L 665.59 468.22 L 657.63 468.22 L 657.63 460.03 L 628 460.03 C 626.94 460.3 626.17 461.24 626.11 462.36 Z M 634.57 471.95 L 656.58 471.95 L 656.58 476.1 L 634.57 476.1 Z M 634.57 479.83 L 656.58 479.83 L 656.58 483.97 L 634.57 483.97 Z M 634.57 487.71 L 656.58 487.71 L 656.58 491.9 L 634.57 491.9 Z" fill="#74b9c0" stroke="none" pointer-events="none"/><rect x="2.13" y="380.94" width="130" height="150" rx="19.5" ry="19.5" fill="none" stroke="#f15f57" stroke-width="3" pointer-events="none"/><path d="M 19.13 404.64 C 19.23 402.57 21.01 400.94 23.16 400.94 L 114.99 400.94 C 117.14 400.94 118.92 402.57 119.03 404.64 L 119.13 427.02 C 119.13 428.07 118.69 429.08 117.91 429.81 C 117.13 430.54 116.08 430.94 114.99 430.91 L 23.16 430.91 C 20.93 430.91 19.13 429.17 19.13 427.02 Z M 31.22 423.81 C 31.22 421.93 29.64 420.41 27.7 420.41 C 25.75 420.41 24.17 421.93 24.17 423.81 C 24.17 425.69 25.75 427.22 27.7 427.22 C 29.64 427.22 31.22 425.69 31.22 423.81 Z M 91.71 423.52 C 91.09 423.52 90.6 424 90.6 424.59 C 90.6 425.18 91.09 425.66 91.71 425.66 L 111.87 425.66 C 112.48 425.66 112.98 425.18 112.98 424.59 C 112.98 424 112.48 423.52 111.87 423.52 Z M 91.71 419.82 C 91.09 419.82 90.6 420.3 90.6 420.89 C 90.6 421.48 91.09 421.96 91.71 421.96 L 111.87 421.96 C 112.48 421.96 112.98 421.48 112.98 420.89 C 112.98 420.3 112.48 419.82 111.87 419.82 Z M 91.71 416.03 C 91.09 416.03 90.6 416.51 90.6 417.1 C 90.6 417.69 91.09 418.17 91.71 418.17 L 111.87 418.17 C 112.48 418.17 112.98 417.69 112.98 417.1 C 112.98 416.51 112.48 416.03 111.87 416.03 Z" fill="#f1bf57" stroke="none" pointer-events="none"/><path d="M 19.13 461.7 C 19.48 458.66 21.85 456.28 24.85 455.94 L 56.77 455.94 L 66.63 465.89 L 66.63 499.73 C 66.46 503.06 63.86 505.73 60.58 505.94 L 24.85 505.94 C 21.9 505.63 19.54 503.31 19.13 500.33 Z M 23.01 499.43 C 23.01 500.63 23.84 501.66 25 501.9 L 60.65 501.9 C 61.79 501.64 62.6 500.61 62.59 499.43 L 62.59 468.22 L 54.63 468.22 L 54.63 460.03 L 25 460.03 C 23.94 460.3 23.17 461.24 23.11 462.36 Z M 31.57 471.95 L 53.58 471.95 L 53.58 476.1 L 31.57 476.1 Z M 31.57 479.83 L 53.58 479.83 L 53.58 483.97 L 31.57 483.97 Z M 31.57 487.71 L 53.58 487.71 L 53.58 491.9 L 31.57 491.9 Z" fill="#f15f57" stroke="none" pointer-events="none"/><path d="M 72.13 461.7 C 72.48 458.66 74.85 456.28 77.85 455.94 L 109.77 455.94 L 119.63 465.89 L 119.63 499.73 C 119.46 503.06 116.86 505.73 113.58 505.94 L 77.85 505.94 C 74.9 505.63 72.54 503.31 72.13 500.33 Z M 76.01 499.43 C 76.01 500.63 76.84 501.66 78 501.9 L 113.65 501.9 C 114.79 501.64 115.6 500.61 115.59 499.43 L 115.59 468.22 L 107.63 468.22 L 107.63 460.03 L 78 460.03 C 76.94 460.3 76.17 461.24 76.11 462.36 Z M 84.57 471.95 L 106.58 471.95 L 106.58 476.1 L 84.57 476.1 Z M 84.57 479.83 L 106.58 479.83 L 106.58 483.97 L 84.57 483.97 Z M 84.57 487.71 L 106.58 487.71 L 106.58 491.9 L 84.57 491.9 Z" fill="#74b9c0" stroke="none" pointer-events="none"/><path d="M 195.13 290.94 L 93.3 365" fill="none" stroke="#f15f57" stroke-width="3" stroke-miterlimit="10" pointer-events="none"/><path d="M 87.84 368.97 L 92.47 360.04 L 93.3 365 L 97.76 367.32 Z" fill="#f15f57" stroke="#f15f57" stroke-width="3" stroke-miterlimit="10" pointer-events="none"/><path d="M 245.13 290.94 L 565.31 368.56" fill="none" stroke="#f15f57" stroke-width="3" stroke-miterlimit="10" pointer-events="none"/><path d="M 571.87 370.15 L 562.06 372.41 L 565.31 368.56 L 564.18 363.66 Z" fill="#f15f57" stroke="#f15f57" stroke-width="3" stroke-miterlimit="10" pointer-events="none"/><path d="M 225.13 290.94 L 326.96 365" fill="none" stroke="#f15f57" stroke-width="3" stroke-miterlimit="10" pointer-events="none"/><path d="M 332.41 368.97 L 322.49 367.32 L 326.96 365 L 327.78 360.04 Z" fill="#f15f57" stroke="#f15f57" stroke-width="3" stroke-miterlimit="10" pointer-events="none"/><path d="M 435.13 290.94 L 134.91 368.42" fill="none" stroke="#74b9c0" stroke-width="3" stroke-miterlimit="10" pointer-events="none"/><path d="M 128.37 370.11 L 135.96 363.5 L 134.91 368.42 L 138.21 372.21 Z" fill="#74b9c0" stroke="#74b9c0" stroke-width="3" stroke-miterlimit="10" pointer-events="none"/><path d="M 485.13 290.94 L 606.52 365.65" fill="none" stroke="#74b9c0" stroke-width="3" stroke-miterlimit="10" pointer-events="none"/><path d="M 612.27 369.19 L 602.25 368.3 L 606.52 365.65 L 606.96 360.64 Z" fill="#74b9c0" stroke="#74b9c0" stroke-width="3" stroke-miterlimit="10" pointer-events="none"/><path d="M 465.13 290.94 L 353.53 365.34" fill="none" stroke="#74b9c0" stroke-width="3" stroke-miterlimit="10" pointer-events="none"/><path d="M 347.92 369.08 L 352.91 360.35 L 353.53 365.34 L 357.9 367.84 Z" fill="#74b9c0" stroke="#74b9c0" stroke-width="3" stroke-miterlimit="10" pointer-events="none"/></g></svg>