<?xml version="1.0" encoding="UTF-8"?>
<!DOCTYPE svg PUBLIC "-//W3C//DTD SVG 1.1//EN" "http://www.w3.org/Graphics/SVG/1.1/DTD/svg11.dtd">
<svg xmlns="http://www.w3.org/2000/svg" xmlns:xlink="http://www.w3.org/1999/xlink" width="445px" height="365px" version="1.1"><defs/><g transform="translate(0.5,0.5)"><path d="M 32 228.17 L 32 135.35 C 32.95 128.55 38.12 123.15 44.8 122 L 122.43 122 L 146 145.66 L 146 228.17 C 145.17 235.39 139.59 241.1 132.48 242 L 45.16 242 C 38.19 240.95 32.79 235.27 32 228.17 Z M 61.91 208.39 L 114.78 208.39 L 114.78 198.32 L 61.91 198.32 Z M 114.78 189.22 L 114.78 179.39 L 61.91 179.39 L 61.91 189.22 Z M 61.91 170.29 L 114.78 170.29 L 114.78 160.58 L 61.91 160.58 Z M 117.29 151.48 L 136.67 151.48 L 117.29 131.1 Z" fill="#f1bf57" stroke="none" pointer-events="none"/><path d="M 162 152 L 312.74 86.05" fill="none" stroke="#f15f57" stroke-width="3" stroke-miterlimit="10" pointer-events="none"/><path d="M 318.93 83.34 L 312.49 91.07 L 312.74 86.05 L 308.88 82.83 Z" fill="#f15f57" stroke="#f15f57" stroke-width="3" stroke-miterlimit="10" pointer-events="none"/><path d="M 162 182 L 311.9 182" fill="none" stroke="#f15f57" stroke-width="3" stroke-miterlimit="10" pointer-events="none"/><path d="M 318.65 182 L 309.65 186.5 L 311.9 182 L 309.65 177.5 Z" fill="#f15f57" stroke="#f15f57" stroke-width="3" stroke-miterlimit="10" pointer-events="none"/><path d="M 162 212 L 302.84 277.73" fill="none" stroke="#f15f57" stroke-width="3" stroke-miterlimit="10" pointer-events="none"/><path d="M 308.96 280.58 L 298.9 280.85 L 302.84 277.73 L 302.71 272.7 Z" fill="#f15f57" stroke="#f15f57" stroke-width="3" stroke-miterlimit="10" pointer-events="none"/><path d="M 342 47.76 C 342.35 44.72 344.73 42.33 347.73 42 L 379.64 42 L 389.5 51.95 L 389.5 85.79 C 389.33 89.12 386.73 91.79 383.45 92 L 347.73 92 C 344.77 91.68 342.41 89.37 342 86.38 Z M 345.88 85.48 C 345.88 86.69 346.72 87.72 347.88 87.96 L 383.53 87.96 C 384.66 87.7 385.47 86.67 385.47 85.48 L 385.47 54.27 L 377.5 54.27 L 377.5 46.09 L 347.88 46.09 C 346.81 46.36 346.04 47.3 345.98 48.41 Z M 354.45 58.01 L 376.45 58.01 L 376.45 62.15 L 354.45 62.15 Z M 354.45 65.89 L 376.45 65.89 L 376.45 70.03 L 354.45 70.03 Z M 354.45 73.77 L 376.45 73.77 L 376.45 77.96 L 354.45 77.96 Z" fill="#f1bf57" stroke="none" pointer-events="none"/><path d="M 342 162.76 C 342.35 159.72 344.73 157.33 347.73 157 L 379.64 157 L 389.5 166.95 L 389.5 200.79 C 389.33 204.12 386.73 206.79 383.45 207 L 347.73 207 C 344.77 206.68 342.41 204.37 342 201.38 Z M 345.88 200.48 C 345.88 201.69 346.72 202.72 347.88 202.96 L 383.53 202.96 C 384.66 202.7 385.47 201.67 385.47 200.48 L 385.47 169.27 L 377.5 169.27 L 377.5 161.09 L 347.88 161.09 C 346.81 161.36 346.04 162.3 345.98 163.41 Z M 354.45 173.01 L 376.45 173.01 L 376.45 177.15 L 354.45 177.15 Z M 354.45 180.89 L 376.45 180.89 L 376.45 185.03 L 354.45 185.03 Z M 354.45 188.77 L 376.45 188.77 L 376.45 192.96 L 354.45 192.96 Z" fill="#f1bf57" stroke="none" pointer-events="none"/><path d="M 342 277.76 C 342.35 274.72 344.73 272.33 347.73 272 L 379.64 272 L 389.5 281.95 L 389.5 315.79 C 389.33 319.12 386.73 321.79 383.45 322 L 347.73 322 C 344.77 321.68 342.41 319.37 342 316.38 Z M 345.88 315.48 C 345.88 316.69 346.72 317.72 347.88 317.96 L 383.53 317.96 C 384.66 317.7 385.47 316.67 385.47 315.48 L 385.47 284.27 L 377.5 284.27 L 377.5 276.09 L 347.88 276.09 C 346.81 276.36 346.04 277.3 345.98 278.41 Z M 354.45 288.01 L 376.45 288.01 L 376.45 292.15 L 354.45 292.15 Z M 354.45 295.89 L 376.45 295.89 L 376.45 300.03 L 354.45 300.03 Z M 354.45 303.77 L 376.45 303.77 L 376.45 307.96 L 354.45 307.96 Z" fill="#f1bf57" stroke="none" pointer-events="none"/><rect x="2" y="2" width="440" height="360" rx="54" ry="54" fill="none" stroke="#f15f57" stroke-width="3" pointer-events="none"/></g></svg>